<svg xmlns="http://www.w3.org/2000/svg" xmlns:xlink="http://www.w3.org/1999/xlink" preserveAspectRatio="xMidYMid" width="11" height="7" viewBox="0 0 11 7">
  <defs>
    <style>
      .cls-1 {
        fill: #a4a4a4;
        fill-rule: evenodd;
      }
    </style>
  </defs>
  <path d="M9.118,6.610 L5.501,2.767 L1.811,6.689 L1.811,6.688 C1.617,6.887 1.354,7.009 1.064,7.009 C0.469,7.009 -0.012,6.497 -0.012,5.865 C-0.012,5.557 0.103,5.278 0.290,5.072 L0.289,5.072 L4.724,0.359 L4.725,0.359 C4.920,0.143 5.195,0.009 5.499,0.009 C5.500,0.009 5.501,0.009 5.501,0.009 C5.502,0.009 5.503,0.009 5.504,0.009 C5.808,0.009 6.082,0.143 6.278,0.359 L6.278,0.359 L10.714,5.072 L10.711,5.074 C10.896,5.280 11.011,5.558 11.011,5.865 C11.011,6.497 10.528,7.009 9.934,7.009 C9.608,7.009 9.315,6.854 9.118,6.610 Z" class="cls-1"/>
</svg>
