<?xml version="1.0" encoding="utf-8"?>
<!-- Generator: Adobe Illustrator 18.1.0, SVG Export Plug-In . SVG Version: 6.00 Build 0)  -->
<svg version="1.1" id="Layer_1" xmlns:ev="http://www.w3.org/2001/xml-events"
	 xmlns="http://www.w3.org/2000/svg" xmlns:xlink="http://www.w3.org/1999/xlink" x="0px" y="0px" viewBox="-19.6 19.4 7.3 12.3"
	 enable-background="new -19.6 19.4 7.3 12.3" xml:space="preserve">
<path fill="#FFFFFF" d="M-12.7,21.5l-4,4l4.1,4.1v0c0.2,0.2,0.3,0.5,0.3,0.8c0,0.7-0.5,1.2-1.2,1.2c-0.3,0-0.6-0.1-0.8-0.3h0
	l-4.9-4.9h0c-0.2-0.2-0.4-0.5-0.4-0.9c0,0,0,0,0,0s0,0,0,0c0-0.3,0.1-0.6,0.4-0.9h0l4.9-4.9l0,0c0.2-0.2,0.5-0.3,0.8-0.3
	c0.7,0,1.2,0.5,1.2,1.2C-12.3,21-12.5,21.3-12.7,21.5z"/>
</svg>
