<svg xmlns="http://www.w3.org/2000/svg" xmlns:xlink="http://www.w3.org/1999/xlink" preserveAspectRatio="xMidYMid" width="11" height="7" viewBox="0 0 11 7">
  <defs>
    <style>
      .cls-1 {
        fill: #a4a4a4;
        fill-rule: evenodd;
      }
    </style>
  </defs>
  <path d="M1.882,0.390 L5.499,4.233 L9.189,0.311 L9.189,0.312 C9.383,0.113 9.646,-0.009 9.936,-0.009 C10.530,-0.009 11.012,0.503 11.012,1.134 C11.012,1.443 10.897,1.722 10.710,1.928 L10.711,1.928 L6.276,6.641 L6.275,6.641 C6.080,6.856 5.805,6.991 5.501,6.991 C5.500,6.991 5.499,6.991 5.499,6.991 C5.498,6.991 5.497,6.991 5.496,6.991 C5.192,6.991 4.918,6.856 4.722,6.641 L4.721,6.641 L0.286,1.928 L0.289,1.925 C0.104,1.720 -0.010,1.441 -0.010,1.134 C-0.010,0.503 0.472,-0.009 1.066,-0.009 C1.392,-0.009 1.685,0.145 1.882,0.390 Z" class="cls-1"/>
</svg>
