<svg xmlns="http://www.w3.org/2000/svg" xmlns:xlink="http://www.w3.org/1999/xlink" preserveAspectRatio="xMidYMid" width="11.593" height="11.593" viewBox="0 0 11.593 11.593">
  <defs>
    <style>
      .cls-1 {
        fill: #a4a4a4;
        fill-rule: evenodd;
      }
    </style>
  </defs>
  <path d="M7.692,5.783 L11.192,9.283 C11.719,9.810 11.719,10.665 11.192,11.192 C10.665,11.719 9.810,11.719 9.283,11.192 L5.783,7.692 L2.282,11.192 C1.755,11.719 0.900,11.719 0.373,11.192 C-0.154,10.665 -0.154,9.810 0.373,9.283 L3.873,5.783 L0.373,2.282 C-0.154,1.755 -0.154,0.900 0.373,0.373 C0.900,-0.154 1.755,-0.154 2.282,0.373 L5.783,3.873 L9.283,0.373 C9.810,-0.154 10.665,-0.154 11.192,0.373 C11.719,0.900 11.719,1.755 11.192,2.282 L7.692,5.783 Z" class="cls-1"/>
</svg>
