<svg xmlns="http://www.w3.org/2000/svg" xmlns:xlink="http://www.w3.org/1999/xlink" preserveAspectRatio="xMidYMid" width="18" height="8.875" viewBox="0 0 18 8.875">
  <defs>
    <style>
      .cls-1 {
        fill: #ccc;
        fill-rule: evenodd;
      }
    </style>
  </defs>
  <path d="M5.240,7.215 C5.440,7.400 5.530,7.653 5.530,7.905 C5.530,8.158 5.440,8.411 5.240,8.595 C4.850,8.974 4.220,8.974 3.830,8.595 L0.290,5.010 C0.140,4.854 0.050,4.670 0.020,4.475 C0.000,4.427 0.000,4.368 0.000,4.320 L0.020,4.135 C0.050,3.941 0.140,3.756 0.290,3.610 L3.830,0.316 C4.220,-0.063 4.850,-0.063 5.240,0.316 C5.440,0.501 5.530,0.754 5.530,1.006 C5.530,1.259 5.440,1.511 5.240,1.696 L2.400,4.339 L5.240,7.215 ZM17.980,4.407 C17.950,4.213 17.860,4.028 17.710,3.883 L14.170,0.297 C13.780,-0.082 13.150,-0.082 12.760,0.297 C12.560,0.481 12.470,0.734 12.470,0.987 C12.470,1.230 12.560,1.472 12.760,1.667 L15.600,4.553 L12.760,7.196 C12.560,7.381 12.470,7.633 12.470,7.886 C12.470,8.129 12.560,8.372 12.760,8.566 C13.150,8.945 13.780,8.945 14.170,8.566 L17.710,5.282 C17.860,5.126 17.950,4.942 17.980,4.747 L18.000,4.563 C18.000,4.514 18.000,4.456 17.980,4.407 Z" class="cls-1"/>
</svg>
