<svg xmlns="http://www.w3.org/2000/svg" xmlns:xlink="http://www.w3.org/1999/xlink" preserveAspectRatio="xMidYMid" width="18" height="18" viewBox="0 0 18 18">
  <defs>
    <style>
      .cls-1 {
        fill: #ccc;
        opacity: 0.4;
        fill-rule: evenodd;
      }
    </style>
  </defs>
  <path d="M17.000,10.458 L15.330,10.458 C15.330,10.459 15.330,10.460 15.330,10.460 C15.170,11.150 14.900,11.800 14.540,12.390 L15.721,13.612 C16.103,14.008 16.091,14.644 15.696,15.026 L14.977,15.720 C14.581,16.103 13.945,16.092 13.562,15.696 L12.424,14.517 C12.422,14.518 12.421,14.519 12.420,14.520 C11.830,14.890 11.170,15.170 10.460,15.330 C10.459,15.330 10.459,15.330 10.458,15.330 L10.458,17.000 C10.458,17.550 10.008,18.000 9.458,18.000 L8.458,18.000 C7.908,18.000 7.458,17.550 7.458,17.000 L7.458,15.309 C6.779,15.149 6.149,14.880 5.580,14.520 C5.579,14.519 5.578,14.518 5.576,14.517 L4.438,15.696 C4.055,16.092 3.419,16.103 3.024,15.720 L2.304,15.026 C1.908,14.644 1.897,14.008 2.279,13.612 L3.460,12.390 C3.100,11.800 2.830,11.150 2.670,10.460 C2.670,10.460 2.670,10.459 2.670,10.458 L1.000,10.458 C0.450,10.458 -0.000,10.008 -0.000,9.458 L-0.000,8.458 C-0.000,7.908 0.450,7.458 1.000,7.458 L2.691,7.458 C2.851,6.799 3.110,6.169 3.460,5.610 L2.280,4.390 C1.900,3.990 1.910,3.360 2.300,2.970 L3.020,2.280 C3.420,1.900 4.060,1.910 4.440,2.300 L5.580,3.480 C6.160,3.110 6.810,2.840 7.500,2.680 L7.500,1.000 C7.500,0.450 7.950,-0.000 8.500,-0.000 L9.500,-0.000 C10.050,-0.000 10.500,0.450 10.500,1.000 L10.500,2.680 C11.190,2.840 11.840,3.110 12.420,3.480 C12.421,3.481 12.423,3.482 12.424,3.483 L13.562,2.304 C13.945,1.909 14.581,1.897 14.977,2.279 L15.696,2.974 C16.091,3.356 16.103,3.993 15.721,4.388 L14.540,5.610 C14.890,6.170 15.149,6.799 15.309,7.458 L17.000,7.458 C17.550,7.458 18.000,7.908 18.000,8.458 L18.000,9.458 C18.000,10.008 17.550,10.458 17.000,10.458 ZM9.000,6.500 C7.620,6.500 6.500,7.620 6.500,9.000 C6.500,10.380 7.620,11.500 9.000,11.500 C10.380,11.500 11.500,10.380 11.500,9.000 C11.500,7.620 10.380,6.500 9.000,6.500 Z" class="cls-1"/>
</svg>
