<svg xmlns="http://www.w3.org/2000/svg" xmlns:xlink="http://www.w3.org/1999/xlink" preserveAspectRatio="xMidYMid" width="18" height="19" viewBox="0 0 18 19">
  <defs>
    <style>
      .cls-1 {
        fill: #ccc;
        fill-rule: evenodd;
      }
    </style>
  </defs>
  <path d="M8.995,19.004 C4.019,19.004 -0.015,15.043 -0.015,10.158 C-0.015,8.674 0.362,7.278 1.020,6.050 L2.661,7.686 C2.350,8.452 2.167,9.283 2.167,10.158 C2.167,13.859 5.224,16.860 8.996,16.860 C12.767,16.860 15.824,13.859 15.824,10.158 C15.824,9.289 15.642,8.464 15.336,7.702 L16.978,6.065 C17.631,7.289 18.006,8.680 18.006,10.158 C18.006,15.043 13.972,19.004 8.995,19.004 ZM9.677,11.753 C9.676,11.753 9.676,11.753 9.675,11.753 C9.588,11.834 9.484,11.898 9.368,11.942 C9.344,11.951 9.317,11.949 9.291,11.956 C9.203,11.982 9.113,12.008 9.014,12.008 C8.916,12.008 8.826,11.982 8.737,11.956 C8.712,11.949 8.685,11.951 8.661,11.942 C8.545,11.898 8.441,11.834 8.354,11.753 C8.353,11.753 8.353,11.753 8.352,11.753 L5.273,8.897 C4.909,8.558 4.909,8.011 5.273,7.672 C5.638,7.334 6.229,7.334 6.593,7.672 L8.081,9.053 L8.081,0.861 C8.081,0.383 8.499,-0.005 9.014,-0.005 C9.530,-0.005 9.948,0.383 9.948,0.861 L9.948,9.053 L11.436,7.672 C11.800,7.334 12.391,7.334 12.755,7.672 C13.120,8.011 13.120,8.558 12.755,8.897 L9.677,11.753 Z" class="cls-1"/>
</svg>
