<svg xmlns="http://www.w3.org/2000/svg" xmlns:xlink="http://www.w3.org/1999/xlink" preserveAspectRatio="xMidYMid" width="18" height="18" viewBox="0 0 18 18">
  <defs>
    <style>
      .cls-1 {
        fill: #ccc;
        fill-rule: evenodd;
      }
    </style>
  </defs>
  <path d="M9.000,18.000 C4.040,18.000 -0.000,13.960 -0.000,9.000 C-0.000,4.040 4.040,-0.000 9.000,-0.000 C13.960,-0.000 18.000,4.040 18.000,9.000 C18.000,13.960 13.960,18.000 9.000,18.000 ZM9.000,2.000 C5.140,2.000 2.000,5.140 2.000,9.000 C2.000,12.860 5.140,16.000 9.000,16.000 C12.860,16.000 16.000,12.860 16.000,9.000 C16.000,5.140 12.860,2.000 9.000,2.000 ZM11.000,14.000 L7.000,14.000 C6.450,14.000 6.000,13.550 6.000,13.000 C6.000,12.450 6.450,12.000 7.000,12.000 L8.000,12.000 L8.000,9.000 C7.450,9.000 7.000,8.550 7.000,8.000 C7.000,7.450 7.450,7.000 8.000,7.000 L9.000,7.000 C9.550,7.000 10.000,7.450 10.000,8.000 L10.000,12.000 L11.000,12.000 C11.550,12.000 12.000,12.450 12.000,13.000 C12.000,13.550 11.550,14.000 11.000,14.000 ZM9.000,6.000 C8.450,6.000 8.000,5.550 8.000,5.000 C8.000,4.450 8.450,4.000 9.000,4.000 C9.550,4.000 10.000,4.450 10.000,5.000 C10.000,5.550 9.550,6.000 9.000,6.000 Z" class="cls-1"/>
</svg>
