<?xml version="1.0" encoding="utf-8"?>
<!-- Generator: Adobe Illustrator 18.1.1, SVG Export Plug-In . SVG Version: 6.00 Build 0)  -->
<svg version="1.1" id="Layer_1" xmlns="http://www.w3.org/2000/svg" xmlns:xlink="http://www.w3.org/1999/xlink" x="0px" y="0px"
	 viewBox="139.7 627.8 470.6 78.4" enable-background="new 139.7 627.8 470.6 78.4" xml:space="preserve">
<path opacity="0.4" fill="#FFFFFF" enable-background="new    " d="M178.9,646.7c-11.3,0-20.3,9.2-20.3,20.3s9.2,20.3,20.3,20.3
	c11.2,0,20.3-9.2,20.3-20.3S190.2,646.7,178.9,646.7z M178.9,678c-6.1,0-11-4.9-11-11s4.9-11,11-11c6.1,0,11,4.9,11,11
	S185,678,178.9,678z"/>
<path opacity="0.4" fill="#FFFFFF" enable-background="new    " d="M218.1,667c0,10.8-4.4,20.6-11.5,27.7l-6.6-6.6
	c5.4-5.4,8.7-12.9,8.7-21.1s-3.3-15.7-8.7-21.1l6.6-6.6C213.7,646.4,218.1,656.2,218.1,667z"/>
<path fill="#FFFFFF" d="M200,688.1l6.6,6.6c-7.1,7.1-16.9,11.5-27.7,11.5c-21.7,0-39.2-17.5-39.2-39.2c0-21.7,17.5-39.2,39.2-39.2
	c10.8,0,20.6,4.4,27.7,11.5l-6.6,6.6c-5.4-5.4-12.9-8.7-21.1-8.7c-16.4,0-29.8,13.4-29.8,29.8s13.4,29.8,29.8,29.8
	C187.1,696.8,194.6,693.5,200,688.1z"/>
<g id="XMLID_2_">
	<path id="XMLID_4_" fill="#FFFFFF" d="M257.4,667.1L257.4,667.1c0-11.2,8.3-20.3,19.9-20.3c7.1,0,11.4,2.6,15.3,6.2l-3.1,3.3
		c-3.3-3.2-7-5.4-12.4-5.4c-8.7,0-15.2,7.1-15.2,16.1v0.1c0,9.1,6.5,16.2,15.2,16.2c5.4,0,8.9-2.1,12.6-5.6l2.9,2.8
		c-4,4.2-8.6,6.9-15.7,6.9C265.7,687.2,257.4,678.4,257.4,667.1z"/>
	<path id="XMLID_5_" fill="#FFFFFF" d="M323,647.1h4.2l17.9,39.5h-4.8l-4.5-10.4h-21.3l-4.7,10.4h-4.7L323,647.1z M333.9,672.3
		l-8.9-20l-8.9,20H333.9z"/>
	<path id="XMLID_6_" fill="#FFFFFF" d="M362.3,647.4h13.6c12.4,0,20.8,8.5,20.8,19.5v0.1c0,11-8.5,19.6-20.8,19.6h-13.6V647.4z
		 M375.9,682.6c9.9,0,16.3-6.7,16.3-15.4V667c0-8.7-6.4-15.6-16.3-15.6h-9.2v31h9.2V682.6z"/>
	<path id="XMLID_17_" fill="#FFFFFF" d="M417.4,647.4h16.9c4.8,0,8.7,1.5,11.2,3.9c2,2,3.1,4.7,3.1,7.7v0.1
		c0,6.5-4.5,10.3-10.7,11.4l11.9,16.1h-5.4L433,671.4h-0.1h-11.2v15.2h-4.4v-39.2H417.4z M433.8,667.4c5.9,0,10-3.1,10-8.1v-0.1
		c0-4.8-3.7-7.7-10-7.7h-12.1v15.9H433.8z"/>
	<path id="XMLID_20_" fill="#FFFFFF" d="M471.9,647.4h28.3v4h-23.9v13.4h21.4v4h-21.4v13.7h24.1v4h-28.7v-39.2H471.9z"/>
	<path id="XMLID_41_" fill="#FFFFFF" d="M518.8,667.1L518.8,667.1c0-10.9,8.1-20.3,20.1-20.3c11.9,0,20,9.3,20,20.2c0,0,0,0,0,0.1
		c0,10.8-8.1,20.2-20.1,20.2C526.7,687.2,518.8,677.9,518.8,667.1z M554.2,667.1L554.2,667.1c0-9.1-6.5-16.3-15.4-16.3
		s-15.3,7.2-15.3,16.1v0.1c0,8.9,6.5,16.2,15.4,16.2C547.7,683.2,554.2,676.1,554.2,667.1z"/>
	<path id="XMLID_50_" fill="#FFFFFF" d="M577.1,647.4h4.2l24.8,31.4v-31.4h4.3v39.2h-3.6l-25.4-32.1v32.1h-4.3V647.4z"/>
</g>
</svg>
