<svg xmlns="http://www.w3.org/2000/svg" xmlns:xlink="http://www.w3.org/1999/xlink" preserveAspectRatio="xMidYMid" width="17" height="15" viewBox="0 0 17 15">
  <defs>
    <style>
      .cls-1 {
        fill: #ffd2c3;
        fill-rule: evenodd;
      }
    </style>
  </defs>
  <path d="M15.500,9.000 L1.500,9.000 C0.672,9.000 0.000,8.328 0.000,7.500 C0.000,6.672 0.672,6.000 1.500,6.000 L15.500,6.000 C16.328,6.000 17.000,6.672 17.000,7.500 C17.000,8.328 16.328,9.000 15.500,9.000 ZM15.500,3.000 L1.500,3.000 C0.672,3.000 0.000,2.328 0.000,1.500 C0.000,0.672 0.672,-0.000 1.500,-0.000 L15.500,-0.000 C16.328,-0.000 17.000,0.672 17.000,1.500 C17.000,2.328 16.328,3.000 15.500,3.000 ZM1.500,12.000 L15.500,12.000 C16.328,12.000 17.000,12.672 17.000,13.500 C17.000,14.328 16.328,15.000 15.500,15.000 L1.500,15.000 C0.672,15.000 0.000,14.328 0.000,13.500 C0.000,12.672 0.672,12.000 1.500,12.000 Z" class="cls-1"/>
</svg>
