<svg xmlns="http://www.w3.org/2000/svg" xmlns:xlink="http://www.w3.org/1999/xlink" preserveAspectRatio="xMidYMid" width="18" height="4.031" viewBox="0 0 18 4.031">
  <defs>
    <style>
      .cls-1 {
        fill: #5bc;
        fill-rule: evenodd;
      }
    </style>
  </defs>
  <path d="M15.993,4.019 C14.886,4.019 13.989,3.122 13.989,2.015 C13.989,0.909 14.886,0.012 15.993,0.012 C17.099,0.012 17.996,0.909 17.996,2.015 C17.996,3.122 17.099,4.019 15.993,4.019 ZM8.993,4.019 C7.886,4.019 6.989,3.122 6.989,2.015 C6.989,0.909 7.886,0.012 8.993,0.012 C10.099,0.012 10.996,0.909 10.996,2.015 C10.996,3.122 10.099,4.019 8.993,4.019 ZM1.993,4.019 C0.886,4.019 -0.011,3.122 -0.011,2.015 C-0.011,0.909 0.886,0.012 1.993,0.012 C3.099,0.012 3.996,0.909 3.996,2.015 C3.996,3.122 3.099,4.019 1.993,4.019 Z" class="cls-1"/>
</svg>
