<svg xmlns="http://www.w3.org/2000/svg" xmlns:xlink="http://www.w3.org/1999/xlink" preserveAspectRatio="xMidYMid" width="16" height="18.094" viewBox="0 0 16 18.094">
  <defs>
    <style>
      .cls-1 {
        fill: #fff;
        fill-rule: evenodd;
      }
    </style>
  </defs>
  <path d="M15.677,17.762 C15.461,17.978 15.197,18.086 14.885,18.086 L1.107,18.086 C0.794,18.086 0.530,17.978 0.314,17.762 C0.098,17.546 -0.010,17.282 -0.010,16.969 L-0.010,11.142 C-0.010,10.830 0.098,10.563 0.314,10.341 C0.530,10.118 0.794,10.007 1.107,10.007 L3.060,10.007 C3.535,12.304 5.568,14.031 8.006,14.031 C10.443,14.031 12.476,12.304 12.952,10.007 L14.885,10.007 C15.197,10.007 15.461,10.118 15.677,10.341 C15.893,10.563 16.001,10.830 16.001,11.142 L16.001,16.969 C16.001,17.282 15.893,17.546 15.677,17.762 ZM12.367,6.008 L8.650,9.725 L8.650,9.725 C8.486,9.895 8.256,10.001 8.001,10.001 C8.000,10.001 7.999,10.001 7.999,10.001 C7.998,10.001 7.998,10.001 7.997,10.001 C7.742,10.001 7.512,9.895 7.348,9.725 L7.348,9.725 L3.631,6.008 L3.633,6.006 C3.477,5.844 3.382,5.624 3.382,5.382 C3.382,4.884 3.786,4.480 4.284,4.480 C4.558,4.480 4.802,4.602 4.968,4.794 L7.000,6.827 L7.000,1.000 C7.000,0.448 7.448,-0.000 8.000,-0.000 C8.552,-0.000 9.000,0.448 9.000,1.000 L9.000,6.824 L11.092,4.732 L11.092,4.733 C11.254,4.576 11.475,4.480 11.718,4.480 C12.216,4.480 12.620,4.884 12.620,5.382 C12.620,5.625 12.523,5.845 12.367,6.008 L12.367,6.008 Z" class="cls-1"/>
</svg>
