<svg xmlns="http://www.w3.org/2000/svg" xmlns:xlink="http://www.w3.org/1999/xlink" preserveAspectRatio="xMidYMid" width="16" height="18" viewBox="0 0 16 18">
  <defs>
    <style>
      .cls-1 {
        fill: #fff;
        opacity: 0.8;
        fill-rule: evenodd;
      }
    </style>
  </defs>
  <path d="M14.000,7.000 L13.000,7.000 L13.000,5.000 C13.000,2.240 10.760,0.000 8.000,0.000 C5.240,0.000 3.000,2.240 3.000,5.000 L3.000,7.000 L2.000,7.000 C0.900,7.000 -0.000,7.900 -0.000,9.000 L-0.000,16.000 C-0.000,17.100 0.900,18.000 2.000,18.000 L14.000,18.000 C15.100,18.000 16.000,17.100 16.000,16.000 L16.000,9.000 C16.000,7.900 15.100,7.000 14.000,7.000 ZM11.000,7.000 L5.000,7.000 L5.000,5.000 C5.000,3.350 6.350,2.000 8.000,2.000 C9.650,2.000 11.000,3.350 11.000,5.000 L11.000,7.000 Z" class="cls-1"/>
</svg>
