<svg xmlns="http://www.w3.org/2000/svg" xmlns:xlink="http://www.w3.org/1999/xlink" preserveAspectRatio="xMidYMid" width="14.438" height="14.468" viewBox="0 0 14.438 14.468">
  <defs>
    <style>
      .cls-1 {
        fill: #404040;
        opacity: 0.6;
        fill-rule: evenodd;
      }
    </style>
  </defs>
  <path d="M14.056,12.377 L10.923,9.243 C10.906,9.227 10.887,9.215 10.869,9.199 C11.486,8.264 11.846,7.145 11.846,5.941 C11.846,2.666 9.191,0.011 5.916,0.011 C2.641,0.011 -0.014,2.666 -0.014,5.941 C-0.014,9.216 2.641,11.871 5.916,11.871 C7.120,11.871 8.239,11.511 9.175,10.894 C9.190,10.912 9.202,10.931 9.218,10.948 L12.352,14.081 C12.822,14.552 13.586,14.552 14.056,14.081 C14.527,13.610 14.527,12.847 14.056,12.377 ZM5.916,9.815 C3.776,9.815 2.042,8.081 2.042,5.941 C2.042,3.801 3.776,2.067 5.916,2.067 C8.056,2.067 9.790,3.801 9.790,5.941 C9.790,8.081 8.056,9.815 5.916,9.815 Z" class="cls-1"/>
</svg>
