<svg xmlns="http://www.w3.org/2000/svg" xmlns:xlink="http://www.w3.org/1999/xlink" preserveAspectRatio="xMidYMid" width="20.375" height="14.25" viewBox="0 0 20.375 14.25">
  <defs>
    <style>
      .cls-1 {
        fill: #ccc;
        fill-rule: evenodd;
      }
    </style>
  </defs>
  <path d="M18.125,7.270 C16.730,10.270 13.691,12.348 10.166,12.348 C6.640,12.348 3.602,10.270 2.206,7.270 C2.163,7.177 2.163,7.071 2.206,6.980 C3.602,3.980 6.640,1.901 10.166,1.901 C13.691,1.901 16.730,3.980 18.125,6.980 C18.168,7.073 18.168,7.179 18.125,7.270 ZM10.167,4.116 C8.505,4.116 7.158,5.462 7.158,7.126 C7.158,8.787 8.504,10.135 10.167,10.135 C11.828,10.135 13.176,8.787 13.176,7.126 C13.176,5.464 11.829,4.116 10.167,4.116 ZM20.310,7.322 C18.531,11.408 14.658,14.238 10.163,14.238 C5.669,14.238 1.796,11.408 0.017,7.322 C-0.038,7.196 -0.038,7.052 0.017,6.928 C1.796,2.842 5.669,0.012 10.163,0.012 C14.658,0.012 18.531,2.842 20.310,6.928 C20.365,7.054 20.365,7.199 20.310,7.322 Z" class="cls-1"/>
</svg>
