<svg xmlns="http://www.w3.org/2000/svg" xmlns:xlink="http://www.w3.org/1999/xlink" width="0" height="0" style="position:absolute">

<symbol id="icon-arrow-down" viewBox="0 0 12 8">
        <path d="M2.826 1.23l3.617 3.844 3.69-3.922c.194-.198.457-.32.747-.32.594 0 1.076.512 1.076 1.143 0 .31-.115.588-.302.794L7.22 7.48c-.196.215-.47.35-.775.35H6.44c-.304 0-.578-.135-.774-.35L1.23 2.77l.003-.004c-.185-.205-.3-.484-.3-.79C.933 1.343 1.417.83 2.01.83c.326 0 .62.154.816.4z"/>
</symbol>

<symbol id="icon-arrow-left" viewBox="0 0 9 13">
        <path d="M3.8 6.5l4.1 4.1c.2.2.3.5.3.8 0 .7-.5 1.2-1.2 1.2-.3 0-.6-.1-.8-.3L1.3 7.4c-.2-.2-.4-.5-.4-.9 0-.3.1-.6.4-.9L6.2.7c.2-.2.5-.3.8-.3.7 0 1.2.5 1.2 1.2 0 .4-.2.7-.4.9l-4 4z"/>
</symbol>

<symbol id="icon-arrow-right" viewBox="0 0 8 13">
        <path d="M4.675 6.752l-4.1-4.1c-.2-.2-.3-.5-.3-.8 0-.7.5-1.2 1.2-1.2.3 0 .6.1.8.3l4.9 4.9c.2.2.4.5.4.9 0 .3-.1.6-.4.9l-4.9 4.9c-.2.2-.5.3-.8.3-.7 0-1.2-.5-1.2-1.2 0-.4.2-.7.4-.9l4-4z"/>
</symbol>

<symbol id="icon-arrow-top" viewBox="0 0 12 7">
        <path d="M9.432 6.6L5.815 2.76l-3.69 3.92c-.194.198-.457.32-.747.32C.783 7 .302 6.488.302 5.856c0-.308.115-.587.302-.793L5.037.35c.196-.216.47-.35.775-.35h.005c.304 0 .578.134.774.35l4.437 4.713-.003.002c.185.206.3.484.3.79 0 .633-.483 1.145-1.077 1.145-.326 0-.62-.155-.816-.4z"/>
</symbol>

<symbol id="icon-attention" viewBox="0 0 18 18">
        <path d="M9 18c-4.97 0-9-4.03-9-9s4.03-9 9-9 9 4.03 9 9-4.03 9-9 9zM9 1.714C4.976 1.714 1.714 4.976 1.714 9c0 4.024 3.262 7.286 7.286 7.286 4.024 0 7.286-3.262 7.286-7.286 0-4.024-3.262-7.286-7.286-7.286zM9 14c-.552 0-1-.448-1-1s.448-1 1-1 1 .448 1 1-.448 1-1 1zm0-3c-.552 0-1-.448-1-1V5c0-.552.448-1 1-1s1 .448 1 1v5c0 .552-.448 1-1 1z"/>
</symbol>

<symbol id="icon-calendar" viewBox="0 0 19 18">
        <path d="M17.512 18H1.488C.666 18 0 17.35 0 16.55V2.442c0-.8.666-1.45 1.488-1.45h16.024c.822 0 1.488.65 1.488 1.45V16.55c0 .8-.666 1.45-1.488 1.45zm-.53-13.012H1.986v11.01h14.998V4.988zM4.25 6.978h2.49c.133 0 .24.103.24.23v2.526c0 .128-.107.232-.24.232H4.25c-.133 0-.24-.104-.24-.232V7.21c0-.13.107-.233.24-.233zm0 4h2.49c.133 0 .24.103.24.23v2.526c0 .128-.107.232-.24.232H4.25c-.133 0-.24-.104-.24-.232V11.21c0-.13.107-.233.24-.233zm3.972-3.97h2.557c.13 0 .236.105.236.233v2.527c0 .128-.107.232-.238.232H8.22c-.13 0-.238-.105-.238-.233V7.24c0-.127.107-.23.238-.23zm0 4h2.557c.13 0 .236.105.236.233v2.527c0 .128-.107.232-.238.232H8.22c-.13 0-.238-.105-.238-.233V11.24c0-.127.107-.23.238-.23zm3.972-4h2.59c.13 0 .238.105.238.233v2.527c0 .128-.107.232-.24.232h-2.588c-.13 0-.238-.105-.238-.233V7.24c0-.127.107-.23.238-.23zm0 4h2.59c.13 0 .238.105.238.233v2.527c0 .128-.107.232-.24.232h-2.588c-.13 0-.238-.105-.238-.233V11.24c0-.127.107-.23.238-.23z"/>
</symbol>

<symbol id="icon-checkbox-tick" viewBox="0 0 15 13">
        <path d="M14.042 4.068l-7.1 7.1c-.007.008-.01.02-.017.026-.59.59-1.547.59-2.137 0l-.005-.003s0 0-.002-.002L1.94 8.345c-.59-.59-.59-1.546 0-2.136.59-.593 1.546-.593 2.136 0l1.776 1.774 6.054-6.054c.59-.59 1.546-.59 2.136 0 .59.59.59 1.548 0 2.138z" stroke="#FFF"/>
</symbol>

<symbol id="icon-close" viewBox="0 0 10 10">
        <path d="M6.765 5.016l2.892 2.892c.223.223.362.532.362.873 0 .684-.555 1.238-1.238 1.238-.34 0-.65-.14-.874-.362l-2.89-2.893-2.893 2.892c-.223.223-.532.362-.873.362-.682 0-1.236-.554-1.236-1.236 0-.34.138-.65.362-.87L3.27 5.015.378 2.124C.154 1.9.016 1.59.016 1.25.016.567.57.014 1.252.014c.34 0 .65.14.873.362l2.893 2.892L7.908.376c.225-.223.534-.362.875-.362.683 0 1.236.553 1.236 1.236 0 .34-.14.65-.364.874l-2.89 2.892z"/>
</symbol>

<symbol id="icon-code" viewBox="0 0 19 9">
        <path d="M5.777 7.164c.2.185.29.438.29.69 0 .253-.09.506-.29.69-.39.38-1.02.38-1.41 0L.827 4.96c-.15-.157-.24-.34-.27-.536-.02-.048-.02-.107-.02-.155l.02-.187c.03-.194.12-.38.27-.525L4.367.264c.39-.38 1.02-.38 1.41 0 .2.185.29.438.29.69 0 .253-.09.505-.29.69l-2.84 2.643 2.84 2.876zm12.74-2.808c-.03-.194-.12-.38-.27-.524L14.707.246c-.39-.38-1.02-.38-1.41 0-.2.184-.29.437-.29.69 0 .243.09.485.29.68l2.84 2.886-2.84 2.643c-.2.185-.29.437-.29.69 0 .243.09.486.29.68.39.38 1.02.38 1.41 0l3.54-3.284c.15-.154.24-.34.27-.533l.02-.184c0-.05 0-.107-.02-.156z"/>
</symbol>

<symbol id="icon-configure" viewBox="0 0 19 18">
        <path d="M17.36 10.458h-1.67v.002c-.16.69-.43 1.34-.79 1.93l1.182 1.222c.382.396.37 1.032-.025 1.414l-.72.694c-.395.383-1.03.372-1.414-.024l-1.138-1.18-.004.004c-.59.37-1.25.65-1.96.81V17c0 .55-.45 1-1 1h-1c-.55 0-1-.45-1-1v-1.69c-.68-.16-1.31-.43-1.88-.79 0 0 0-.002-.002-.003L4.8 15.697c-.384.395-1.02.406-1.415.023l-.72-.694c-.396-.382-.407-1.018-.025-1.414l1.18-1.222c-.36-.59-.63-1.24-.79-1.93v-.002H1.36c-.55 0-1-.45-1-1v-1c0-.55.45-1 1-1h1.692c.16-.66.42-1.29.77-1.848L2.64 4.39c-.38-.4-.37-1.03.02-1.42l.72-.69c.4-.38 1.04-.37 1.42.02l1.14 1.18c.58-.37 1.23-.64 1.92-.8V1c0-.55.45-1 1-1h1c.55 0 1 .45 1 1v1.68c.69.16 1.34.43 1.92.8l.003.003 1.138-1.18c.384-.394 1.02-.406 1.416-.024l.72.693c.394.382.406 1.02.024 1.414L14.9 5.61c.35.56.608 1.19.768 1.847h1.69c.55 0 1 .45 1 1v1c0 .55-.45 1-1 1zm-8-3.958c-1.38 0-2.5 1.12-2.5 2.5s1.12 2.5 2.5 2.5 2.5-1.12 2.5-2.5-1.12-2.5-2.5-2.5z"/>
</symbol>

<symbol id="icon-continue" viewBox="0 0 11 9">
        <path d="M10.51 4.716c-.03.195-.12.38-.27.535L6.7 8.537c-.39.38-1.02.38-1.41 0-.2-.194-.29-.437-.29-.68 0-.253.09-.505.29-.69l2.84-2.643-2.84-2.886C5.09 1.442 5 1.2 5 .957c0-.254.09-.507.29-.69.39-.38 1.02-.38 1.41 0l3.54 3.584c.15.148.24.333.27.527.02.05.02.107.02.156l-.02.184zm-5-.34c.02.05.02.107.02.156l-.02.184c-.03.195-.12.38-.27.535L1.7 8.537c-.39.38-1.02.38-1.41 0C.09 8.342 0 8.1 0 7.856c0-.253.09-.505.29-.69l2.84-2.643L.29 1.636C.09 1.442 0 1.2 0 .956 0 .703.09.45.29.266c.39-.38 1.02-.38 1.41 0L5.24 3.85c.15.147.24.332.27.526z"/>
</symbol>

<symbol id="icon-decrease" viewBox="0 0 12 9">
        <path d="M2.15.482c-1.26 0-1.774.73-1.145 1.622L5.24 7.928c.63.892 1.66.892 2.288 0l4.07-5.824c.63-.892.114-1.622-1.145-1.622H2.15z"/>
</symbol>

<symbol id="icon-dots" viewBox="0 0 19 5">
        <path d="M16.54 4.49c-1.104 0-2-.898-2-2.005 0-1.105.895-2.002 2.002-2.002 1.108 0 2.005.896 2.005 2.002 0 1.107-.898 2.004-2.004 2.004h.002zm-6.997 0c-1.107 0-2.005-.898-2.005-2.005 0-1.105.897-2.002 2.004-2.002 1.108 0 2.005.896 2.005 2.002 0 1.107-.897 2.004-2.004 2.004h.002zm-7 0c-1.108 0-2.005-.9-2.005-2.006 0-1.104.897-2 2.002-2 1.107 0 2.005.896 2.005 2.002 0 1.107-.897 2.004-2.003 2.004z"/>
</symbol>

<symbol id="icon-download" viewBox="0 0 16 17">
        <path d="M14.953 13.586l-2.242 2.242c-.004.006-.012.008-.017.013-.18.176-.423.286-.692.286-.27 0-.51-.11-.69-.284-.007-.005-.014-.006-.02-.012l-2.24-2.242c-.39-.39-.39-1.026 0-1.415.386-.387 1.023-.387 1.412.002l.54.54v-3.59c0-.55.45-1 1-1s1 .45 1 1v3.585l.54-.538c.388-.39 1.025-.39 1.413 0 .39.388.39 1.025 0 1.414zM12 6.063c-.552 0-1-.448-1-1V3c0-.552-.45-1-1-1H3c-.55 0-1 .448-1 1v7.98c0 .55.45 1 1 1h3c.552 0 1 .447 1 1 0 .55-.448 1-1 1H3c-1.654 0-3-1.347-3-3V3c0-1.654 1.346-3 3-3h7c1.654 0 3 1.346 3 3v2.063c0 .552-.448 1-1 1z"/>
</symbol>

<symbol id="icon-edit" viewBox="0 0 18 18">
        <path d="M17.394 4.26L5.47 16.21c-.03.03-.06.06-.09.07-.07.082-.14.132-.22.182-.04.03-.09.06-.14.08-.222.132-.463.212-.725.232l-2.983.967c-.05.01-.1.03-.15.03-.13.02-.262.01-.392-.02-.07-.02-.15-.04-.22-.08-.132-.06-.263-.17-.353-.29-.06-.09-.12-.18-.15-.29-.03-.113-.05-.214-.05-.325 0-.06.01-.12.02-.18.01-.03.02-.07.03-.112 0-.03.01-.05.02-.08l1.205-2.89c.07-.363.24-.695.522-.977L13.718.563c.763-.755 2.09-.755 2.843 0l.845.846c.372.37.583.884.583 1.42 0 .542-.21 1.045-.593 1.43zM11.81 5.335l-8.58 8.6v.01l-.02.01.01.01c0 .06-.02.122-.04.172l-.42 1.017 1.244-.403.04.04h.01l.08-.08 8.51-8.54-.835-.835zm3.334-3.343l-1.96 1.964.835.836 1.957-1.964-.834-.837z"/>
</symbol>

<symbol id="icon-error" viewBox="0 0 72 72">
        <path d="M36.044 71.396c19.606 0 35.5-15.894 35.5-35.5S55.65.396 36.044.396.544 16.29.544 35.896s15.894 35.5 35.5 35.5zm0-3c-17.95 0-32.5-14.55-32.5-32.5s14.55-32.5 32.5-32.5 32.5 14.55 32.5 32.5-14.55 32.5-32.5 32.5zm0-26c-.828 0-1.5-.672-1.5-1.5v-16c0-.828.672-1.5 1.5-1.5s1.5.672 1.5 1.5v16c0 .828-.672 1.5-1.5 1.5zm0 3c.828 0 1.5.672 1.5 1.5s-.672 1.5-1.5 1.5-1.5-.672-1.5-1.5.672-1.5 1.5-1.5z"/>
</symbol>

<symbol id="icon-female" viewBox="0 0 64 77">
        <path d="M52.78 42.54l-9.718-2.95c16.42 0 7.22-38.878-8.582-38.878h-4.418C11.61.712 5.902 39.59 21.48 39.59l-9.717 2.95C4.92 44.51.84 74.113.84 74.113c-.01.1-.02.203-.02.306C.82 75.843 1.975 77 3.4 77h57.747c1.423 0 2.576-1.155 2.576-2.58 0-.104-.007-.206-.018-.307 0 0-4.08-29.604-10.923-31.573zm-26.735-1.52c.263-.185.606-.212.894-.068.99.494 1.97.745 2.913.745h4.834c.943 0 1.924-.25 2.915-.745.287-.143.63-.116.893.07s.402.5.363.82l-.636 5.168c-.01.09-.037.178-.075.26L33.06 58.267c-.142.31-.452.506-.792.506s-.65-.197-.792-.506L26.39 47.27c-.04-.082-.064-.17-.075-.26l-.632-5.17c-.04-.318.1-.633.362-.82zM20.72 24.325c-.25-.162-.4-.438-.4-.734v-1.44c0-.482.393-.874.875-.874h.357v-3.01c0-.302.157-.583.414-.743.258-.16.58-.174.85-.04 1.343.673 3.135.75 4.367.75.83 0 1.666-.042 2.402-.08l.66-.03c.294-.013.592-.02.886-.02 3.6 0 6.617.94 8.82 1.627.966.3 1.728.538 2.283.612.434.057.758.428.758.867v.064h.358c.483 0 .874.392.874.875v1.44c0 .295-.15.57-.397.733l-.848.55-.047.362c-.276 2.092-1.448 4.802-3.135 7.25-2.136 3.103-4.138 4.492-5.175 4.492h-4.693c-1.037 0-3.04-1.39-5.176-4.492-1.687-2.448-2.86-5.158-3.135-7.248l-.047-.363-.848-.55z"/>
</symbol>

<symbol id="icon-growth" viewBox="0 0 12 9">
        <path d="M1.96 8.54C.7 8.54.184 7.81.813 6.92l4.234-5.826c.63-.892 1.66-.892 2.29 0l4.068 5.825c.63.89.115 1.62-1.144 1.62h-8.3z"/>
</symbol>

<symbol id="icon-info" viewBox="0 0 19 18">
        <path d="M9.775 18c-4.96 0-9-4.04-9-9s4.04-9 9-9 9 4.04 9 9-4.04 9-9 9zm0-16c-3.86 0-7 3.14-7 7s3.14 7 7 7 7-3.14 7-7-3.14-7-7-7zm2 12h-4c-.55 0-1-.45-1-1s.45-1 1-1h1V9c-.55 0-1-.45-1-1s.45-1 1-1h1c.55 0 1 .45 1 1v4h1c.55 0 1 .45 1 1s-.45 1-1 1zm-2-8c-.55 0-1-.45-1-1s.45-1 1-1 1 .45 1 1-.45 1-1 1z"/>
</symbol>

<symbol id="icon-lock" viewBox="0 0 17 19">
        <path d="M14.837 7.425h-1v-2c0-2.76-2.24-5-5-5s-5 2.24-5 5v2h-1c-1.1 0-2 .9-2 2v7c0 1.1.9 2 2 2h12c1.1 0 2-.9 2-2v-7c0-1.1-.9-2-2-2zm-3 0h-6v-2c0-1.65 1.35-3 3-3s3 1.35 3 3v2z"/>
</symbol>

<symbol id="icon-mail" viewBox="0 0 19 14">
        <path d="M16.837 13.08h-14c-1.1 0-2-.9-2-2v-9c0-.18.02-.35.07-.51l8.93 8.92 8.93-8.92c.05.16.07.33.07.51v9c0 1.1-.9 2-2 2zM2.327.15c.16-.05.33-.07.51-.07h14c.18 0 .35.02.51.07l-7.51 7.52L2.327.15z"/>
</symbol>

<symbol id="icon-male" viewBox="0 0 64 77">
        <path d="M60.81 77H3.047C1.624 77 .47 75.845.47 74.42c0-.138.014-.272.035-.403 0 0 4.096-29.573 10.932-31.54l9.71-2.947c.234-.71.755-1.324 1.482-1.844-.8-.89-1.478-1.793-1.99-2.54-1.22-1.767-2.234-3.672-2.937-5.51-.346-.777-.64-1.556-.88-2.32-.945-.793-1.5-1.978-1.5-3.22v-3.044c0-.873.273-1.728.778-2.437V14.33C16.1 6.81 22.21.694 29.72.694h4.415c7.51 0 13.618 6.116 13.618 13.635v4.284c.505.708.78 1.563.78 2.437v3.045c0 1.243-.557 2.428-1.502 3.222-.24.763-.533 1.542-.88 2.317-.7 1.84-1.715 3.744-2.934 5.513-.513.746-1.19 1.647-1.99 2.538.728.52 1.248 1.134 1.483 1.845l9.71 2.947c6.835 1.967 10.965 30.705 10.965 31.942 0 1.424-1.153 2.58-2.577 2.58zM25.97 47.01c.012.09.038.178.076.26l5.09 10.997c.142.31.45.506.79.506.342 0 .65-.197.794-.506l5.086-10.996c.038-.08.063-.17.074-.26l.635-5.166c.04-.32-.1-.635-.362-.82-.263-.187-.606-.214-.894-.07-.993.493-1.974.744-2.917.744H29.51c-.943 0-1.924-.25-2.915-.745-.288-.144-.63-.117-.894.07-.26.185-.4.5-.36.82l.63 5.167zm16.607-21.82l.047-.36.847-.55c.25-.16.4-.437.4-.733v-1.44c0-.48-.39-.873-.874-.873h-.476c-.07-.115-.164-.216-.28-.29-.248-.163-.56-.187-.83-.065-1.17.52-2.33.787-3.455.787-1.986 0-3.783-.818-5.343-2.432-1.25-1.294-2.885-1.95-4.855-1.95-2.47 0-4.854 1.007-6.056 1.608-.294.148-.48.45-.48.782v1.56h-.357c-.482 0-.873.39-.873.872v1.44c0 .295.148.57.396.732l.847.55.047.362c.276 2.09 1.447 4.795 3.133 7.24 2.134 3.1 4.135 4.488 5.17 4.488h4.69c1.036 0 3.037-1.386 5.172-4.486 1.685-2.446 2.856-5.153 3.132-7.243z"/>
</symbol>

<symbol id="icon-map-pixel" viewBox="0 0 18 18">
        <path d="M17 5h-2v2c0 .55-.45 1-1 1s-1-.45-1-1V5h-2c-.55 0-1-.45-1-1s.45-1 1-1h2V1c0-.55.45-1 1-1s1 .45 1 1v2h2c.55 0 1 .45 1 1s-.45 1-1 1zm-3 13H8v-6h6v6zM0 12h6v6H0v-6zm0-8h6v6H0V4z"/>
</symbol>

<symbol id="icon-map-urls" viewBox="0 0 18 18">
        <path d="M16.873 5.002H14.86v2.032c0 .533-.432.97-.96.97s-.96-.437-.96-.97V5.002h-2.075c-.528 0-.96-.436-.96-.97 0-.532.432-.968.96-.968h2.075V.97c0-.534.432-.97.96-.97s.96.436.96.97v2.094h2.013c.528 0 .96.436.96.97 0 .532-.432.968-.96.968zm-8.336 7.484c-.1 0-.208-.02-.317-.05-.516-.18-.793-.75-.625-1.27.258-.78-.148-2.252-1.437-3.543-.733-.74-1.605-1.27-2.418-1.45-.644-.15-1.18-.07-1.467.22-.287.3-.366.83-.218 1.48.19.82.714 1.71 1.437 2.442.387.39.387 1.02.01 1.41-.386.4-1.02.39-1.407 0-1-1-1.695-2.21-1.972-3.39C-.185 6.992.093 5.77.866 4.98c.783-.79 1.992-1.07 3.32-.76 1.17.27 2.37.97 3.37 1.98 1.694 1.702 2.467 3.953 1.922 5.603-.138.41-.525.68-.94.68zM5.95 9.664c.525.17.803.74.624 1.26-.257.78.16 2.252 1.447 3.553 1.46 1.47 3.253 1.85 3.888 1.22.287-.29.366-.83.218-1.48-.19-.82-.714-1.7-1.447-2.44-.388-.392-.388-1.022 0-1.412.385-.39 1.02-.39 1.406 0 .99 1 1.695 2.21 1.972 3.4.307 1.332.03 2.553-.753 3.343-.585.6-1.388.89-2.27.89-1.417 0-3.052-.74-4.41-2.11-1.695-1.7-2.468-3.952-1.923-5.593.17-.53.735-.81 1.25-.63z"/>
</symbol>

<symbol id="icon-menu" viewBox="0 0 18 15">
        <path d="M16.1 9h-14C1.272 9 .6 8.328.6 7.5S1.272 6 2.1 6h14c.828 0 1.5.672 1.5 1.5S16.928 9 16.1 9zm0-6h-14C1.272 3 .6 2.328.6 1.5S1.272 0 2.1 0h14c.828 0 1.5.672 1.5 1.5S16.928 3 16.1 3zm-14 9h14c.828 0 1.5.672 1.5 1.5s-.672 1.5-1.5 1.5h-14c-.828 0-1.5-.672-1.5-1.5S1.272 12 2.1 12z"/>
</symbol>

<symbol id="icon-no-data" viewBox="0 0 34 27">
        <path d="M30.5 7c-.306 0-.598-.052-.88-.126l-5.53 8.292c.56.62.91 1.433.91 2.334 0 1.933-1.567 3.5-3.5 3.5S18 19.433 18 17.5c0-.55.138-1.064.365-1.528L14.8 13.12c-.617.54-1.415.88-2.3.88-.314 0-.612-.054-.9-.132l-5.49 7.32c.547.618.89 1.42.89 2.312C7 25.433 5.433 27 3.5 27S0 25.433 0 23.5 1.567 20 3.5 20c.314 0 .612.055.9.132l5.49-7.32C9.344 12.194 9 11.392 9 10.5 9 8.567 10.567 7 12.5 7S16 8.567 16 10.5c0 .317-.056.62-.135.91l3.86 3.09c.522-.31 1.124-.5 1.775-.5.306 0 .598.052.88.126l5.53-8.292C27.35 5.214 27 4.4 27 3.5 27 1.567 28.567 0 30.5 0S34 1.567 34 3.5 32.433 7 30.5 7zm-27 14.75c-.966 0-1.75.784-1.75 1.75 0 .967.784 1.75 1.75 1.75.967 0 1.75-.783 1.75-1.75 0-.966-.783-1.75-1.75-1.75zm9-13c-.966 0-1.75.784-1.75 1.75 0 .967.784 1.75 1.75 1.75.967 0 1.75-.783 1.75-1.75 0-.966-.783-1.75-1.75-1.75zm7.25 8.75c0 .966.784 1.75 1.75 1.75.967 0 1.75-.784 1.75-1.75s-.783-1.75-1.75-1.75c-.966 0-1.75.784-1.75 1.75zM30.5 1.75c-.966 0-1.75.784-1.75 1.75s.784 1.75 1.75 1.75 1.75-.784 1.75-1.75-.784-1.75-1.75-1.75z"/>
</symbol>

<symbol id="icon-no-line" viewBox="0 0 28 23">
        <path d="M26 13H10c-.828 0-1.5-.672-1.5-1.5S9.172 10 10 10h16c.828 0 1.5.672 1.5 1.5S26.828 13 26 13zm0-9H10c-.828 0-1.5-.672-1.5-1.5S9.172 1 10 1h16c.828 0 1.5.672 1.5 1.5S26.828 4 26 4zM2.5 23C1.12 23 0 21.88 0 20.5S1.12 18 2.5 18 5 19.12 5 20.5 3.88 23 2.5 23zm0-3.5c-.552 0-1 .448-1 1s.448 1 1 1 1-.448 1-1-.448-1-1-1zm0-5.5C1.12 14 0 12.88 0 11.5S1.12 9 2.5 9 5 10.12 5 11.5 3.88 14 2.5 14zm0-3.5c-.552 0-1 .448-1 1s.448 1 1 1 1-.448 1-1-.448-1-1-1zm0-5.5C1.12 5 0 3.88 0 2.5S1.12 0 2.5 0 5 1.12 5 2.5 3.88 5 2.5 5zm0-3.5c-.552 0-1 .448-1 1s.448 1 1 1 1-.448 1-1-.448-1-1-1zM10 19h16c.828 0 1.5.672 1.5 1.5S26.828 22 26 22H10c-.828 0-1.5-.672-1.5-1.5S9.172 19 10 19z"/>
</symbol>

<symbol id="icon-no-result" viewBox="0 0 55 68">
        <path d="M51.015 67.845H3.028c-1.665 0-3.02-1.343-3.02-2.993V3.988c0-1.65 1.355-2.994 3.02-2.994h33.22v.086c.53-.18 1.14-.075 1.56.342l15.2 15.466h.136v.14l.304.31c.18.176.285.393.355.62h.232V64.85c0 1.65-1.355 2.993-3.02 2.993zM38.045 5.95v10.94H48.79L38.044 5.95zm12.97 13.932h-12.97c-1.667 0-3.02-1.343-3.02-2.994v-12.9H3.027v60.864h47.987v-44.97zM13.53 49.844c.315 0 .613.054.902.132l5.49-7.32c-.548-.618-.89-1.422-.89-2.312 0-1.933 1.566-3.5 3.5-3.5 1.932 0 3.5 1.567 3.5 3.5 0 .317-.057.62-.136.91l3.86 3.09c.522-.31 1.124-.5 1.775-.5.31 0 .6.052.883.125l5.528-8.293c-.56-.62-.91-1.433-.91-2.334 0-1.933 1.57-3.5 3.5-3.5 1.935 0 3.5 1.567 3.5 3.5s-1.565 3.5-3.5 3.5c-.304 0-.596-.052-.88-.126l-5.527 8.292c.56.62.91 1.432.91 2.333 0 1.933-1.568 3.5-3.5 3.5-1.934 0-3.5-1.567-3.5-3.5 0-.55.138-1.065.364-1.528l-3.566-2.852c-.615.54-1.413.88-2.3.88-.31 0-.61-.055-.9-.132l-5.49 7.32c.55.618.89 1.42.89 2.313 0 1.933-1.565 3.5-3.5 3.5-1.93 0-3.5-1.567-3.5-3.5s1.57-3.5 3.5-3.5zm28.75-16.5c0-.967-.782-1.75-1.75-1.75-.965 0-1.75.783-1.75 1.75 0 .966.785 1.75 1.75 1.75.968 0 1.75-.784 1.75-1.75zm-10.75 15.75c.968 0 1.75-.784 1.75-1.75 0-.967-.782-1.75-1.75-1.75-.965 0-1.75.783-1.75 1.75 0 .966.785 1.75 1.75 1.75zm-9-7c.968 0 1.75-.784 1.75-1.75 0-.967-.782-1.75-1.75-1.75-.965 0-1.75.783-1.75 1.75 0 .966.785 1.75 1.75 1.75zm-9 13c.968 0 1.75-.784 1.75-1.75 0-.967-.782-1.75-1.75-1.75-.965 0-1.75.783-1.75 1.75 0 .966.785 1.75 1.75 1.75zM11.083 24.78H27.19c.553 0 1.006.448 1.006.996v.998c0 .55-.453.998-1.007.998H11.08c-.554 0-1.007-.45-1.007-.998v-.998c0-.548.453-.997 1.007-.997zm-1.007-5.004c0-.548.453-.997 1.007-.997H27.19c.553 0 1.006.447 1.006.995v.998c0 .55-.453.998-1.007.998H11.08c-.554 0-1.007-.45-1.007-.997v-.998zm17.173-3.982H11.08c-.554 0-1.007-.45-1.007-.997V13.8c0-.55.453-1 1.007-1h16.166c.554 0 1.007.45 1.007 1v.997c0 .548-.453.997-1.007.997z"/>
</symbol>

<symbol id="icon-no-result-search" viewBox="0 0 61 68">
        <path d="M60.408 60.86c-.587.583-1.548.583-2.136 0l-3.904-3.87v7.862c0 1.65-1.355 2.993-3.02 2.993H3.028c-1.665 0-3.02-1.343-3.02-2.993V3.988c0-1.65 1.355-2.994 3.02-2.994h33.22v.086c.53-.18 1.14-.075 1.56.342l16.057 15.915c.18.177.285.394.354.62h.147v34.8l6.04 5.987c.587.582.587 1.534 0 2.116zm-25.67-44.9H11.082c-.554 0-1.007-.448-1.007-.997v-.998c0-.548.453-.997 1.007-.997h23.656v-8.98H3.028v60.864h48.32V53.997l-6.86-6.8c-2.64 2.584-6.26 4.185-10.253 4.185-4.626 0-8.747-2.15-11.424-5.488H11.084c-.554 0-1.007-.45-1.007-.998v-.998c0-.548.453-.997 1.007-.997h9.88c-.842-1.825-1.324-3.85-1.324-5.985 0-.337.027-.667.05-.998h-8.293c-.726 0-1.32-.59-1.32-1.31v-.373c0-.72.594-1.31 1.32-1.31h8.43c.132 0 .25.04.37.074.792-2.782 2.398-5.225 4.555-7.058h-13.67c-.553 0-1.006-.45-1.006-1v-.997c0-.55.453-.998 1.007-.998H27.19c.493 0 .89.364.97.83 1.854-.844 3.907-1.33 6.076-1.33 8.048 0 14.596 6.492 14.596 14.47 0 2.938-.893 5.672-2.418 7.957l4.936 4.892v-30.31H37.76c-1.665 0-3.02-1.344-3.02-2.994v-.5zM45.81 36.915c0-6.327-5.192-11.474-11.575-11.474-6.383 0-11.577 5.148-11.577 11.475S27.852 48.39 34.235 48.39 45.81 43.24 45.81 36.913zm-8.05-31.31V16.46h10.95L37.76 5.606zM11.082 52.88h32.213c.553 0 1.006.45 1.006.998v.998c0 .55-.45.998-1.004.998H11.082c-.554 0-1.007-.45-1.007-.998v-.998c0-.55.453-.998 1.007-.998z"/>
</symbol>

<symbol id="icon-plus" viewBox="0 0 15 15">
        <path d="M13 8.915H9v4c0 .83-.672 1.5-1.5 1.5s-1.5-.67-1.5-1.5v-4H2c-.828 0-1.5-.67-1.5-1.5 0-.828.672-1.5 1.5-1.5h4v-4c0-.828.672-1.5 1.5-1.5s1.5.672 1.5 1.5v4h4c.828 0 1.5.672 1.5 1.5 0 .83-.672 1.5-1.5 1.5z"/>
</symbol>

<symbol id="icon-progress" viewBox="0 0 20 15">
        <path d="M5.773 13.776c-.575-.376-.736-1.15-.36-1.724.372-.57 1.133-.735 1.706-.37.01.006.016.012.026.017.786.51 1.723.81 2.73.81 2.52 0 4.604-1.863 4.958-4.286 0-.01.002-.022.004-.032l.002-.065c0-.352-.284-.636-.634-.636h-1.174c-.175 0-.318-.14-.318-.317 0-.066.02-.127.056-.177h-.002l1.473-1.968 1.38-1.842c.065-.088.15-.158.253-.202.078-.034.164-.054.255-.054.19 0 .362.085.478.218l.057.075 2.793 3.73.05.065v.003c.025.047.04.098.04.15 0 .178-.143.32-.318.32h-1.245c-.324 0-.59.243-.63.557-.002.018-.004.038-.004.058C17.04 11.965 13.812 15 9.877 15c-1.515 0-2.925-.45-4.104-1.224zm6.862-10.473l-.028-.02c-.785-.51-1.722-.808-2.73-.808-2.518 0-4.604 1.86-4.957 4.285 0 .01-.003.02-.004.03l-.003.066c0 .352.284.636.634.636H6.72c.176 0 .318.142.318.318 0 .065-.02.127-.055.177h.002l-1.473 1.97-1.38 1.84c-.065.087-.15.157-.252.2-.078.036-.164.055-.256.055-.19 0-.36-.084-.477-.218l-.058-.075L.295 8.03.25 7.964c-.002 0-.002-.002-.003-.004-.025-.044-.04-.095-.04-.15 0-.176.143-.318.318-.318H1.77c.325 0 .59-.242.63-.556.002-.02.004-.04.004-.06.313-3.858 3.54-6.892 7.473-6.892 1.515 0 2.925.45 4.105 1.224.574.377.736 1.15.36 1.725-.373.57-1.134.735-1.707.37z"/>
</symbol>

<symbol id="icon-search" viewBox="0 0 15 15">
        <path d="M14.664 12.654L11.53 9.52c-.016-.016-.035-.028-.053-.044.617-.935.977-2.054.977-3.258 0-3.275-2.655-5.93-5.93-5.93S.594 2.943.594 6.218s2.655 5.93 5.93 5.93c1.204 0 2.323-.36 3.26-.977.014.02.026.04.042.056l3.134 3.133c.47.47 1.234.47 1.704 0s.47-1.235 0-1.705zm-8.14-2.562c-2.14 0-3.874-1.734-3.874-3.874s1.734-3.874 3.874-3.874 3.874 1.734 3.874 3.874-1.734 3.874-3.874 3.874z"/>
</symbol>

<symbol id="icon-segment" viewBox="0 0 18 18">
        <path d="M17 5h-2v2c0 .55-.45 1-1 1s-1-.45-1-1V5h-2c-.55 0-1-.45-1-1s.45-1 1-1h2V1c0-.55.45-1 1-1s1 .45 1 1v2h2c.55 0 1 .45 1 1s-.45 1-1 1zM7 6.084H3c-.55 0-1 .448-1 1V15c0 .552.45 1 1 1h7c.55 0 1-.448 1-1v-5c0-.553.448-1 1-1s1 .447 1 1v5c0 1.654-1.346 3-3 3H3c-1.654 0-3-1.346-3-3V7.084c0-1.655 1.346-3 3-3h4c.552 0 1 .447 1 1 0 .552-.448 1-1 1z"/>
</symbol>

<symbol id="icon-split" viewBox="0 0 20 10">
        <path d="M19.672 5.775L15.96 9.212c-.206.187-.486.302-.794.302-.632 0-1.144-.482-1.144-1.076 0-.29.122-.553.32-.747L16.2 6H12v3.078c0 .544.028.922-.516.922-.543 0-.453-.378-.453-.922V.922c0-.544-.09-.922.455-.922S12 .378 12 .922V4h4.203L14.42 2.382c-.243-.197-.398-.49-.398-.816 0-.594.512-1.077 1.144-1.077.307 0 .585.113.79.3l.004-.005 3.713 3.435v.002c.215.196.35.47.35.774V5c0 .305-.135.58-.35.775zM8.516 10.03c-.544 0-.485-.408-.485-.952V6h-4.2l1.86 1.69c.2.193.32.456.32.746 0 .594-.51 1.076-1.143 1.076-.31 0-.588-.115-.794-.302L.36 5.777C.143 5.58.01 5.305.01 5v-.004c0-.304.134-.578.35-.774L4.07.785l.003.003c.205-.186.484-.3.79-.3.632 0 1.144.482 1.144 1.076 0 .326-.155.62-.4.816L3.827 4H8.03V.922C8.03.378 7.94 0 8.485 0S9 .378 9 .922v8.156c0 .544.06.953-.484.953z"/>
</symbol>

<symbol id="icon-success" viewBox="0 0 71 71">
        <path d="M35.5 71C55.106 71 71 55.106 71 35.5S55.106 0 35.5 0 0 15.894 0 35.5 15.894 71 35.5 71zm-1.364-26.515c-.074.282-.647.546-.858.758-.586.585-1.07.585-1.657 0L25.26 38.88c-.585-.588-.585-1.538 0-2.124.586-.585 1.536-.585 2.122 0l5.12 5.122 14.364-14.365c.586-.586 1.535-.586 2.12 0 .587.585.587 1.535 0 2.12l-14.848 14.85zM35.5 68C17.55 68 3 53.45 3 35.5S17.55 3 35.5 3 68 17.55 68 35.5 53.45 68 35.5 68z"/>
</symbol>

<symbol id="icon-tick" viewBox="0 0 13 11">
        <path d="M5.463 10.18c-.607.616-1.565.616-2.155.026L.46 7.356c-.59-.59-.59-1.545 0-2.135.59-.59 1.546-.59 2.136 0L4.372 7 10.427.942c.59-.59 1.546-.59 2.136 0 .59.59.59 1.547 0 2.136l-7.1 7.1z"/>
</symbol>

<symbol id="icon-upload" viewBox="0 0 17 19">
        <path d="M15.71 18.59c-.217.216-.48.324-.793.324H1.14c-.314 0-.578-.108-.794-.324-.216-.216-.324-.48-.324-.793V11.97c0-.312.108-.58.324-.8.216-.224.48-.335.793-.335h1.95c.475 2.297 2.508 4.024 4.946 4.024 2.437 0 4.47-1.73 4.946-4.026h1.933c.312 0 .576.11.792.334.215.22.323.488.323.8v5.827c0 .313-.108.577-.324.793zM12.4 6.836l-3.72 3.717c-.164.17-.394.276-.65.276h-.003c-.256 0-.486-.108-.65-.278L3.663 6.836l.002-.002c-.156-.162-.25-.382-.25-.624 0-.498.403-.902.9-.902.275 0 .52.122.685.314l2.032 2.033V1.828c0-.552.448-1 1-1s1 .448 1 1v5.824l2.092-2.092c.162-.156.383-.252.626-.252.498 0 .902.404.902.902 0 .243-.097.463-.253.626z"/>
</symbol>

<symbol id="icon-upload-circle" viewBox="0 0 19 20">
        <path d="M9.207 19.39c-4.976 0-9.01-3.96-9.01-8.846 0-1.484.377-2.88 1.035-4.108l1.64 1.636c-.31.767-.493 1.598-.493 2.473 0 3.7 3.055 6.702 6.827 6.702 3.77 0 6.828-3.002 6.828-6.703 0-.87-.182-1.694-.488-2.456l1.642-1.636c.652 1.224 1.027 2.614 1.027 4.092 0 4.886-4.034 8.846-9.01 8.846zm.682-7.25h-.004c-.087.08-.19.144-.307.188-.025.01-.05.008-.078.014-.088.026-.178.053-.277.053-.098 0-.188-.027-.277-.053-.026-.007-.053-.005-.077-.014-.115-.043-.22-.107-.306-.188h-.002l-3.08-2.857c-.363-.338-.363-.885 0-1.224.366-.34.957-.34 1.32-.003l1.49 1.382V1.247c0-.48.417-.867.932-.867.516.003.934.39.934.87v8.19l1.488-1.38c.364-.34.955-.34 1.32-.002.364.34.364.886 0 1.226l-3.08 2.855z"/>
</symbol>

<symbol id="icon-url" viewBox="0 0 18 19">
        <path d="M16.856 17.183c-.748.698-1.758 1.035-2.87 1.035-1.745 0-3.745-.825-5.404-2.378-1.612-1.51-2.573-3.443-2.572-5.172 0-1.128.4-2.093 1.148-2.793.406-.378 1.036-.352 1.41.06.373.413.346 1.054-.06 1.432-.333.31-.5.75-.502 1.303 0 1.155.738 2.565 1.928 3.68 2.062 1.93 4.59 2.254 5.572 1.34.332-.31.502-.75.502-1.304 0-1.155-.738-2.565-1.928-3.68-.278-.26-.574-.498-.877-.708-.455-.315-.573-.945-.262-1.407.314-.46.936-.58 1.39-.265.382.266.753.566 1.103.894 1.61 1.507 2.572 3.44 2.57 5.17 0 1.127-.396 2.093-1.146 2.794zM10.17 10.61c-.268 0-.537-.11-.734-.328-.373-.41-.346-1.052.06-1.43.332-.312.502-.75.502-1.305 0-1.155-.738-2.565-1.928-3.68-2.062-1.93-4.592-2.255-5.572-1.34-.333.31-.502.75-.502 1.303 0 1.156.74 2.566 1.928 3.68.272.256.568.494.88.71.454.317.57.948.258 1.41-.31.46-.932.58-1.387.262C3.285 9.62 2.913 9.32 2.57 9 .96 7.49 0 5.56 0 3.83 0 2.7.398 1.734 1.147 1.034c1.923-1.79 5.557-1.2 8.276 1.344 1.61 1.51 2.57 3.44 2.57 5.17 0 1.13-.398 2.094-1.147 2.794-.192.18-.433.268-.675.268z"/>
</symbol>

<symbol id="icon-view" viewBox="0 0 22 15">
        <path d="M11.11 12.726c3.577 0 6.8-2.24 8.32-5.732-.175.393-.175.835-.007 1.22C17.91 4.74 14.687 2.5 11.11 2.5c-3.577 0-6.8 2.24-8.318 5.727.173-.39.173-.83.005-1.215 1.513 3.473 4.736 5.714 8.312 5.714zm0 2c-4.495 0-8.368-2.83-10.147-6.916-.055-.126-.055-.27 0-.394C2.743 3.33 6.615.5 11.11.5c4.494 0 8.367 2.83 10.146 6.916.055.126.055.27 0 .394-1.78 4.086-5.652 6.916-10.147 6.916zm.003-10.122c-1.662 0-3.01 1.346-3.01 3.01 0 1.66 1.347 3.01 3.01 3.01 1.66 0 3.01-1.35 3.01-3.01 0-1.662-1.348-3.01-3.01-3.01z"/>
</symbol>
</svg>