<svg xmlns="http://www.w3.org/2000/svg" xmlns:xlink="http://www.w3.org/1999/xlink" width="0" height="0" style="position:absolute">

<symbol id="icon-arrow-down" viewBox="0 0 12 8">
        <path d="M2.826 1.23l3.617 3.844 3.69-3.922c.194-.198.457-.32.747-.32.594 0 1.076.512 1.076 1.143 0 .31-.115.588-.302.794L7.22 7.48c-.196.215-.47.35-.775.35H6.44c-.304 0-.578-.135-.774-.35L1.23 2.77l.003-.004c-.185-.205-.3-.484-.3-.79C.933 1.343 1.417.83 2.01.83c.326 0 .62.154.816.4z"/>
</symbol>

<symbol id="icon-arrow-left" viewBox="0 0 9 13">
        <path d="M3.705 6.5l4.1 4.1c.2.2.3.5.3.8 0 .7-.5 1.2-1.2 1.2-.3 0-.6-.1-.8-.3l-4.9-4.9c-.2-.2-.4-.5-.4-.9 0-.3.1-.6.4-.9l4.9-4.9c.2-.2.5-.3.8-.3.7 0 1.2.5 1.2 1.2 0 .4-.2.7-.4.9l-4 4z"/>
</symbol>

<symbol id="icon-arrow-up" viewBox="0 0 12 7">
        <path d="M9.432 6.6L5.815 2.76l-3.69 3.92c-.194.198-.457.32-.747.32C.783 7 .302 6.488.302 5.856c0-.308.115-.587.302-.793L5.037.35c.196-.216.47-.35.775-.35h.005c.304 0 .578.134.774.35l4.437 4.713-.003.002c.185.206.3.484.3.79 0 .633-.483 1.145-1.077 1.145-.326 0-.62-.155-.816-.4z"/>
</symbol>

<symbol id="icon-arrows-right" viewBox="0 0 11 9">
        <path d="M10.812 4.816c-.03.195-.12.378-.27.535l-3.54 3.285c-.39.38-1.02.38-1.41 0-.2-.194-.29-.437-.29-.68 0-.252.09-.505.29-.69l2.84-2.643-2.84-2.885c-.2-.194-.29-.437-.29-.68 0-.252.09-.505.29-.69.39-.38 1.02-.38 1.41 0l3.54 3.586c.15.146.24.332.27.526.02.047.02.105.02.154l-.02.186zm-5-.34c.02.048.02.106.02.155l-.02.187c-.03.195-.12.378-.27.535l-3.54 3.284c-.39.38-1.02.38-1.41 0-.2-.194-.29-.437-.29-.68 0-.252.09-.505.29-.69l2.84-2.643-2.84-2.885c-.2-.194-.29-.437-.29-.68 0-.252.09-.505.29-.69.39-.38 1.02-.38 1.41 0l3.54 3.586c.15.146.24.332.27.526z"/>
</symbol>

<symbol id="icon-close" viewBox="0 0 13 12">
        <path d="M8.315 6l3.5 3.5c.527.527.527 1.383 0 1.91-.527.527-1.382.527-1.91 0l-3.5-3.5-3.5 3.5c-.527.527-1.382.527-1.91 0-.526-.527-.526-1.383 0-1.91l3.5-3.5-3.5-3.5C.47 1.97.47 1.116.995.59c.53-.526 1.384-.526 1.91 0l3.5 3.5 3.5-3.5c.53-.526 1.384-.526 1.91 0 .528.527.528 1.382 0 1.91L8.316 6z"/>
</symbol>

<symbol id="icon-code" viewBox="0 0 19 9">
        <path d="M5.777 7.164c.2.185.29.438.29.69 0 .253-.09.506-.29.69-.39.38-1.02.38-1.41 0L.827 4.96c-.15-.157-.24-.34-.27-.536-.02-.048-.02-.107-.02-.155l.02-.187c.03-.194.12-.38.27-.525L4.367.264c.39-.38 1.02-.38 1.41 0 .2.185.29.438.29.69 0 .253-.09.505-.29.69l-2.84 2.643 2.84 2.876zm12.74-2.808c-.03-.194-.12-.38-.27-.524L14.707.246c-.39-.38-1.02-.38-1.41 0-.2.184-.29.437-.29.69 0 .243.09.485.29.68l2.84 2.886-2.84 2.643c-.2.185-.29.437-.29.69 0 .243.09.486.29.68.39.38 1.02.38 1.41 0l3.54-3.284c.15-.154.24-.34.27-.533l.02-.184c0-.05 0-.107-.02-.156z"/>
</symbol>

<symbol id="icon-configure" viewBox="0 0 19 18">
        <path d="M17.36 10.458h-1.67v.002c-.16.69-.43 1.34-.79 1.93l1.182 1.222c.382.396.37 1.032-.025 1.414l-.72.694c-.395.383-1.03.372-1.414-.024l-1.138-1.18-.004.004c-.59.37-1.25.65-1.96.81V17c0 .55-.45 1-1 1h-1c-.55 0-1-.45-1-1v-1.69c-.68-.16-1.31-.43-1.88-.79 0 0 0-.002-.002-.003L4.8 15.697c-.384.395-1.02.406-1.415.023l-.72-.694c-.396-.382-.407-1.018-.025-1.414l1.18-1.222c-.36-.59-.63-1.24-.79-1.93v-.002H1.36c-.55 0-1-.45-1-1v-1c0-.55.45-1 1-1h1.692c.16-.66.42-1.29.77-1.848L2.64 4.39c-.38-.4-.37-1.03.02-1.42l.72-.69c.4-.38 1.04-.37 1.42.02l1.14 1.18c.58-.37 1.23-.64 1.92-.8V1c0-.55.45-1 1-1h1c.55 0 1 .45 1 1v1.68c.69.16 1.34.43 1.92.8l.003.003 1.138-1.18c.384-.394 1.02-.406 1.416-.024l.72.693c.394.382.406 1.02.024 1.414L14.9 5.61c.35.56.608 1.19.768 1.847h1.69c.55 0 1 .45 1 1v1c0 .55-.45 1-1 1zm-8-3.958c-1.38 0-2.5 1.12-2.5 2.5s1.12 2.5 2.5 2.5 2.5-1.12 2.5-2.5-1.12-2.5-2.5-2.5z"/>
</symbol>

<symbol id="icon-decrease" viewBox="0 0 12 9">
        <path d="M2.15.482c-1.26 0-1.774.73-1.145 1.622L5.24 7.928c.63.892 1.66.892 2.288 0l4.07-5.824c.63-.892.114-1.622-1.145-1.622H2.15z"/>
</symbol>

<symbol id="icon-dots" viewBox="0 0 19 5">
        <path d="M16.54 4.49c-1.104 0-2-.898-2-2.005 0-1.105.895-2.002 2.002-2.002 1.108 0 2.005.896 2.005 2.002 0 1.107-.898 2.004-2.004 2.004h.002zm-6.997 0c-1.107 0-2.005-.898-2.005-2.005 0-1.105.897-2.002 2.004-2.002 1.108 0 2.005.896 2.005 2.002 0 1.107-.897 2.004-2.004 2.004h.002zm-7 0c-1.108 0-2.005-.9-2.005-2.006 0-1.104.897-2 2.002-2 1.107 0 2.005.896 2.005 2.002 0 1.107-.897 2.004-2.003 2.004z"/>
</symbol>

<symbol id="icon-growth" viewBox="0 0 12 9">
        <path d="M1.96 8.54C.7 8.54.184 7.81.813 6.92l4.234-5.826c.63-.892 1.66-.892 2.29 0l4.068 5.825c.63.89.115 1.62-1.144 1.62h-8.3z"/>
</symbol>

<symbol id="icon-info" viewBox="0 0 19 18">
        <path d="M9.775 18c-4.96 0-9-4.04-9-9s4.04-9 9-9 9 4.04 9 9-4.04 9-9 9zm0-16c-3.86 0-7 3.14-7 7s3.14 7 7 7 7-3.14 7-7-3.14-7-7-7zm2 12h-4c-.55 0-1-.45-1-1s.45-1 1-1h1V9c-.55 0-1-.45-1-1s.45-1 1-1h1c.55 0 1 .45 1 1v4h1c.55 0 1 .45 1 1s-.45 1-1 1zm-2-8c-.55 0-1-.45-1-1s.45-1 1-1 1 .45 1 1-.45 1-1 1z"/>
</symbol>

<symbol id="icon-lock" viewBox="0 0 17 19">
        <path d="M14.837 7.425h-1v-2c0-2.76-2.24-5-5-5s-5 2.24-5 5v2h-1c-1.1 0-2 .9-2 2v7c0 1.1.9 2 2 2h12c1.1 0 2-.9 2-2v-7c0-1.1-.9-2-2-2zm-3 0h-6v-2c0-1.65 1.35-3 3-3s3 1.35 3 3v2z"/>
</symbol>

<symbol id="icon-mail" viewBox="0 0 19 14">
        <path d="M16.837 13.08h-14c-1.1 0-2-.9-2-2v-9c0-.18.02-.35.07-.51l8.93 8.92 8.93-8.92c.05.16.07.33.07.51v9c0 1.1-.9 2-2 2zM2.327.15c.16-.05.33-.07.51-.07h14c.18 0 .35.02.51.07l-7.51 7.52L2.327.15z"/>
</symbol>

<symbol id="icon-menu" viewBox="0 0 18 15">
        <path d="M16.1 9h-14C1.272 9 .6 8.328.6 7.5S1.272 6 2.1 6h14c.828 0 1.5.672 1.5 1.5S16.928 9 16.1 9zm0-6h-14C1.272 3 .6 2.328.6 1.5S1.272 0 2.1 0h14c.828 0 1.5.672 1.5 1.5S16.928 3 16.1 3zm-14 9h14c.828 0 1.5.672 1.5 1.5s-.672 1.5-1.5 1.5h-14c-.828 0-1.5-.672-1.5-1.5S1.272 12 2.1 12z"/>
</symbol>

<symbol id="icon-plus" viewBox="0 0 15 15">
        <path d="M13 8.915H9v4c0 .83-.672 1.5-1.5 1.5s-1.5-.67-1.5-1.5v-4H2c-.828 0-1.5-.67-1.5-1.5 0-.828.672-1.5 1.5-1.5h4v-4c0-.828.672-1.5 1.5-1.5s1.5.672 1.5 1.5v4h4c.828 0 1.5.672 1.5 1.5 0 .83-.672 1.5-1.5 1.5z"/>
</symbol>

<symbol id="icon-progress" viewBox="0 0 20 15">
        <path d="M5.773 13.776c-.575-.376-.736-1.15-.36-1.724.372-.57 1.133-.735 1.706-.37.01.006.016.012.026.017.786.51 1.723.81 2.73.81 2.52 0 4.604-1.863 4.958-4.286 0-.01.002-.022.004-.032l.002-.065c0-.352-.284-.636-.634-.636h-1.174c-.175 0-.318-.14-.318-.317 0-.066.02-.127.056-.177h-.002l1.473-1.968 1.38-1.842c.065-.088.15-.158.253-.202.078-.034.164-.054.255-.054.19 0 .362.085.478.218l.057.075 2.793 3.73.05.065v.003c.025.047.04.098.04.15 0 .178-.143.32-.318.32h-1.245c-.324 0-.59.243-.63.557-.002.018-.004.038-.004.058C17.04 11.965 13.812 15 9.877 15c-1.515 0-2.925-.45-4.104-1.224zm6.862-10.473l-.028-.02c-.785-.51-1.722-.808-2.73-.808-2.518 0-4.604 1.86-4.957 4.285 0 .01-.003.02-.004.03l-.003.066c0 .352.284.636.634.636H6.72c.176 0 .318.142.318.318 0 .065-.02.127-.055.177h.002l-1.473 1.97-1.38 1.84c-.065.087-.15.157-.252.2-.078.036-.164.055-.256.055-.19 0-.36-.084-.477-.218l-.058-.075L.295 8.03.25 7.964c-.002 0-.002-.002-.003-.004-.025-.044-.04-.095-.04-.15 0-.176.143-.318.318-.318H1.77c.325 0 .59-.242.63-.556.002-.02.004-.04.004-.06.313-3.858 3.54-6.892 7.473-6.892 1.515 0 2.925.45 4.105 1.224.574.377.736 1.15.36 1.725-.373.57-1.134.735-1.707.37z"/>
</symbol>

<symbol id="icon-search" viewBox="0 0 15 15">
        <path d="M14.664 12.654L11.53 9.52c-.016-.016-.035-.028-.053-.044.617-.935.977-2.054.977-3.258 0-3.275-2.655-5.93-5.93-5.93S.594 2.943.594 6.218s2.655 5.93 5.93 5.93c1.204 0 2.323-.36 3.26-.977.014.02.026.04.042.056l3.134 3.133c.47.47 1.234.47 1.704 0s.47-1.235 0-1.705zm-8.14-2.562c-2.14 0-3.874-1.734-3.874-3.874s1.734-3.874 3.874-3.874 3.874 1.734 3.874 3.874-1.734 3.874-3.874 3.874z"/>
</symbol>

<symbol id="icon-tick" viewBox="0 0 13 11">
        <path d="M5.463 10.18c-.607.616-1.565.616-2.155.026L.46 7.356c-.59-.59-.59-1.545 0-2.135.59-.59 1.546-.59 2.136 0L4.372 7 10.427.942c.59-.59 1.546-.59 2.136 0 .59.59.59 1.547 0 2.136l-7.1 7.1z"/>
</symbol>

<symbol id="icon-upload" viewBox="0 0 17 19">
        <path d="M15.71 18.59c-.217.216-.48.324-.793.324H1.14c-.314 0-.578-.108-.794-.324-.216-.216-.324-.48-.324-.793V11.97c0-.312.108-.58.324-.8.216-.224.48-.335.793-.335h1.95c.475 2.297 2.508 4.024 4.946 4.024 2.437 0 4.47-1.73 4.946-4.026h1.933c.312 0 .576.11.792.334.215.22.323.488.323.8v5.827c0 .313-.108.577-.324.793zM12.4 6.836l-3.72 3.717c-.164.17-.394.276-.65.276h-.003c-.256 0-.486-.108-.65-.278L3.663 6.836l.002-.002c-.156-.162-.25-.382-.25-.624 0-.498.403-.902.9-.902.275 0 .52.122.685.314l2.032 2.033V1.828c0-.552.448-1 1-1s1 .448 1 1v5.824l2.092-2.092c.162-.156.383-.252.626-.252.498 0 .902.404.902.902 0 .243-.097.463-.253.626z"/>
</symbol>

<symbol id="icon-upload-circle" viewBox="0 0 19 20">
        <path d="M9.207 19.39c-4.976 0-9.01-3.96-9.01-8.846 0-1.484.377-2.88 1.035-4.108l1.64 1.636c-.31.767-.493 1.598-.493 2.473 0 3.7 3.055 6.702 6.827 6.702 3.77 0 6.828-3.002 6.828-6.703 0-.87-.182-1.694-.488-2.456l1.642-1.636c.652 1.224 1.027 2.614 1.027 4.092 0 4.886-4.034 8.846-9.01 8.846zm.682-7.25h-.004c-.087.08-.19.144-.307.188-.025.01-.05.008-.078.014-.088.026-.178.053-.277.053-.098 0-.188-.027-.277-.053-.026-.007-.053-.005-.077-.014-.115-.043-.22-.107-.306-.188h-.002l-3.08-2.857c-.363-.338-.363-.885 0-1.224.366-.34.957-.34 1.32-.003l1.49 1.382V1.247c0-.48.417-.867.932-.867.516.003.934.39.934.87v8.19l1.488-1.38c.364-.34.955-.34 1.32-.002.364.34.364.886 0 1.226l-3.08 2.855z"/>
</symbol>

<symbol id="icon-view" viewBox="0 0 22 15">
        <path d="M11.11 12.726c3.577 0 6.8-2.24 8.32-5.732-.175.393-.175.835-.007 1.22C17.91 4.74 14.687 2.5 11.11 2.5c-3.577 0-6.8 2.24-8.318 5.727.173-.39.173-.83.005-1.215 1.513 3.473 4.736 5.714 8.312 5.714zm0 2c-4.495 0-8.368-2.83-10.147-6.916-.055-.126-.055-.27 0-.394C2.743 3.33 6.615.5 11.11.5c4.494 0 8.367 2.83 10.146 6.916.055.126.055.27 0 .394-1.78 4.086-5.652 6.916-10.147 6.916zm.003-10.122c-1.662 0-3.01 1.346-3.01 3.01 0 1.66 1.347 3.01 3.01 3.01 1.66 0 3.01-1.35 3.01-3.01 0-1.662-1.348-3.01-3.01-3.01z"/>
</symbol>
</svg>