<?xml version="1.0" encoding="utf-8"?>
<!-- Generator: Adobe Illustrator 18.1.1, SVG Export Plug-In . SVG Version: 6.00 Build 0)  -->
<svg version="1.1" id="Layer_1" xmlns="http://www.w3.org/2000/svg" xmlns:xlink="http://www.w3.org/1999/xlink" x="0px" y="0px"
	 viewBox="0 0 384 64" enable-background="new 0 0 384 64" xml:space="preserve">
<g>
	<defs>
		<rect id="SVGID_1_" y="0" width="384" height="64"/>
	</defs>
	<clipPath id="SVGID_2_">
		<use xlink:href="#SVGID_1_"  overflow="visible"/>
	</clipPath>
	<path clip-path="url(#SVGID_2_)" fill="#CCCBCB" d="M32,15.4c-9.2,0-16.6,7.5-16.6,16.6S22.8,48.6,32,48.6S48.6,41.2,48.6,32
		S41.2,15.4,32,15.4 M32,41c-4.9,0-9-4-9-9s4-9,9-9c4.9,0,9,4,9,9S36.9,41,32,41"/>
	<path clip-path="url(#SVGID_2_)" fill="#CCCBCB" d="M54.6,9.4l-5.4,5.4c4.4,4.4,7.1,10.5,7.1,17.2c0,6.7-2.7,12.8-7.1,17.2l5.4,5.4
		C60.4,48.8,64,40.8,64,32C64,23.2,60.4,15.2,54.6,9.4"/>
	<path clip-path="url(#SVGID_2_)" fill="#F1673A" d="M32,56.3C18.6,56.3,7.7,45.4,7.7,32C7.7,18.6,18.6,7.7,32,7.7
		c6.7,0,12.8,2.7,17.2,7.1l5.4-5.4C48.8,3.6,40.8,0,32,0C14.3,0,0,14.3,0,32s14.3,32,32,32c8.8,0,16.8-3.6,22.6-9.4l-5.4-5.4
		C44.8,53.6,38.7,56.3,32,56.3"/>
	<path clip-path="url(#SVGID_2_)" fill="#F1673A" d="M96,32.1L96,32.1c0-9.1,6.8-16.6,16.2-16.6c5.8,0,9.3,2.1,12.5,5.1l-2.5,2.7
		c-2.7-2.6-5.7-4.4-10.1-4.4c-7.1,0-12.4,5.8-12.4,13.1V32c0,7.4,5.4,13.2,12.4,13.2c4.4,0,7.3-1.7,10.3-4.6l2.4,2.3
		c-3.3,3.4-7,5.6-12.8,5.6C102.8,48.5,96,41.3,96,32.1"/>
	<path clip-path="url(#SVGID_2_)" fill="#F1673A" d="M149.6,15.8h3.4L167.6,48h-3.9l-3.7-8.5h-17.4l-3.8,8.5H135L149.6,15.8z
		 M158.5,36.3L151.3,20L144,36.3H158.5z"/>
	<path clip-path="url(#SVGID_2_)" fill="#F1673A" d="M181.6,16h11.1c10.1,0,17,6.9,17,15.9V32c0,9-6.9,16-17,16h-11.1V16z
		 M192.7,44.7c8.1,0,13.3-5.5,13.3-12.6V32c0-7.1-5.2-12.7-13.3-12.7h-7.5v25.3H192.7z"/>
	<path clip-path="url(#SVGID_2_)" fill="#F1673A" d="M226.6,16h13.8c3.9,0,7.1,1.2,9.1,3.2c1.6,1.6,2.5,3.8,2.5,6.3v0.1
		c0,5.3-3.7,8.4-8.7,9.3L253,48h-4.4l-9.3-12.4h-0.1h-9.1V48h-3.6V16z M240,32.3c4.8,0,8.2-2.5,8.2-6.6v-0.1c0-3.9-3-6.3-8.2-6.3
		h-9.9v13H240z"/>
	<polygon clip-path="url(#SVGID_2_)" fill="#F1673A" points="271.1,16 294.3,16 294.3,19.3 274.8,19.3 274.8,30.2 292.2,30.2 
		292.2,33.5 274.8,33.5 274.8,44.7 294.5,44.7 294.5,48 271.1,48 	"/>
	<path clip-path="url(#SVGID_2_)" fill="#F1673A" d="M309.3,32.1L309.3,32.1c0-8.9,6.6-16.6,16.4-16.6c9.7,0,16.3,7.6,16.3,16.5
		c0,0,0,0,0,0.1c0,8.8-6.6,16.5-16.4,16.5C315.8,48.5,309.3,40.9,309.3,32.1 M338.2,32.1L338.2,32.1c0-7.4-5.3-13.3-12.6-13.3
		S313,24.6,313,31.9V32c0,7.3,5.3,13.2,12.6,13.2C332.9,45.2,338.2,39.4,338.2,32.1"/>
	<polygon clip-path="url(#SVGID_2_)" fill="#F1673A" points="356.9,16 360.3,16 380.5,41.6 380.5,16 384,16 384,48 381.1,48 
		360.5,21.8 360.5,48 356.9,48 	"/>
</g>
</svg>
