<?xml version="1.0" encoding="UTF-8" standalone="no"?>
<svg width="7px" height="11px" viewBox="0 0 7 11" version="1.1" xmlns="http://www.w3.org/2000/svg" xmlns:xlink="http://www.w3.org/1999/xlink" xmlns:sketch="http://www.bohemiancoding.com/sketch/ns">
    <!-- Generator: Sketch 3.3.2 (12043) - http://www.bohemiancoding.com/sketch -->
    <title>Shape</title>
    <desc>Created with Sketch.</desc>
    <defs></defs>
    <g id="Page-1" stroke="none" stroke-width="1" fill="none" fill-rule="evenodd" sketch:type="MSPage">
        <path d="M0.384,9.118 L4.223,5.501 L0.305,1.811 L0.306,1.811 C0.108,1.617 -0.015,1.354 -0.015,1.064 C-0.015,0.469 0.497,-0.013 1.128,-0.013 C1.436,-0.013 1.715,0.103 1.92,0.29 L1.921,0.289 L6.629,4.724 L6.629,4.725 C6.844,4.92 6.978,5.195 6.978,5.499 L6.978,5.501 L6.978,5.504 C6.978,5.808 6.844,6.082 6.629,6.278 L6.629,6.278 L1.921,10.714 L1.918,10.711 C1.713,10.896 1.434,11.01 1.128,11.01 C0.497,11.01 -0.015,10.528 -0.015,9.934 C-0.015,9.608 0.14,9.315 0.384,9.118 L0.384,9.118 Z" id="Shape" fill="#A4A4A4" sketch:type="MSShapeGroup"></path>
    </g>
</svg>