<?xml version="1.0" encoding="UTF-8" standalone="no"?>
<svg width="11px" height="9px" viewBox="0 0 11 9" version="1.1" xmlns="http://www.w3.org/2000/svg" xmlns:xlink="http://www.w3.org/1999/xlink" xmlns:sketch="http://www.bohemiancoding.com/sketch/ns">
    <!-- Generator: Sketch 3.3.2 (12043) - http://www.bohemiancoding.com/sketch -->
    <title>arrows-right</title>
    <desc>Created with Sketch.</desc>
    <defs></defs>
    <g id="Page-1" stroke="none" stroke-width="1" fill="none" fill-rule="evenodd" sketch:type="MSPage">
        <path d="M10.8118125,4.8155 C10.7818125,5.0105 10.6918125,5.1945 10.5418125,5.3505 L7.0018125,8.6345 C6.6118125,9.0135 5.9818125,9.0135 5.5918125,8.6345 C5.3918125,8.4405 5.3018125,8.1975 5.3018125,7.9545 C5.3018125,7.7015 5.3918125,7.4495 5.5918125,7.2645 L8.4318125,4.6215 L5.5918125,1.7355 C5.3918125,1.5415 5.3018125,1.2985 5.3018125,1.0555 C5.3018125,0.8025 5.3918125,0.5495 5.5918125,0.3655 C5.9818125,-0.0135 6.6118125,-0.0135 7.0018125,0.3655 L10.5418125,3.9505 C10.6918125,4.0965 10.7818125,4.2815 10.8118125,4.4755 C10.8318125,4.5245 10.8318125,4.5825 10.8318125,4.6315 L10.8118125,4.8155 L10.8118125,4.8155 Z M5.8118125,4.4755 C5.8318125,4.5245 5.8318125,4.5825 5.8318125,4.6315 L5.8118125,4.8155 C5.7818125,5.0105 5.6918125,5.1945 5.5418125,5.3505 L2.0018125,8.6345 C1.6118125,9.0135 0.9818125,9.0135 0.5918125,8.6345 C0.3918125,8.4405 0.3018125,8.1975 0.3018125,7.9545 C0.3018125,7.7015 0.3918125,7.4495 0.5918125,7.2645 L3.4318125,4.6215 L0.5918125,1.7355 C0.3918125,1.5415 0.3018125,1.2985 0.3018125,1.0555 C0.3018125,0.8025 0.3918125,0.5495 0.5918125,0.3655 C0.9818125,-0.0135 1.6118125,-0.0135 2.0018125,0.3655 L5.5418125,3.9505 C5.6918125,4.0965 5.7818125,4.2815 5.8118125,4.4755 L5.8118125,4.4755 Z" id="arrows-right" opacity="0.4" fill="#CCCCCC" sketch:type="MSShapeGroup"></path>
    </g>
</svg>