<?xml version="1.0" encoding="UTF-8" standalone="no"?>
<svg width="12px" height="7px" viewBox="0 0 12 7" version="1.1" xmlns="http://www.w3.org/2000/svg" xmlns:xlink="http://www.w3.org/1999/xlink" xmlns:sketch="http://www.bohemiancoding.com/sketch/ns">
    <!-- Generator: Sketch 3.3.2 (12043) - http://www.bohemiancoding.com/sketch -->
    <title>arrow-up</title>
    <desc>Created with Sketch.</desc>
    <defs></defs>
    <g id="Page-1" stroke="none" stroke-width="1" fill="none" fill-rule="evenodd" sketch:type="MSPage">
        <path d="M9.4318125,6.601 L5.8148125,2.758 L2.1248125,6.68 L2.1248125,6.679 C1.9308125,6.878 1.6678125,7 1.3778125,7 C0.7828125,7 0.3018125,6.488 0.3018125,5.856 C0.3018125,5.548 0.4168125,5.269 0.6038125,5.063 L0.6028125,5.063 L5.0378125,0.35 L5.0388125,0.35 C5.2338125,0.134 5.5088125,0 5.8128125,0 L5.8148125,0 L5.8178125,0 C6.1218125,0 6.3958125,0.134 6.5918125,0.35 L6.5918125,0.35 L11.0278125,5.063 L11.0248125,5.065 C11.2098125,5.271 11.3248125,5.549 11.3248125,5.856 C11.3248125,6.488 10.8418125,7 10.2478125,7 C9.9218125,7 9.6288125,6.845 9.4318125,6.601 L9.4318125,6.601 Z" id="arrow-up" fill="#A4A4A4" sketch:type="MSShapeGroup"></path>
    </g>
</svg>