<?xml version="1.0" encoding="UTF-8" standalone="no"?>
<svg width="9px" height="13px" viewBox="0 0 9 13" version="1.1" xmlns="http://www.w3.org/2000/svg" xmlns:xlink="http://www.w3.org/1999/xlink" xmlns:sketch="http://www.bohemiancoding.com/sketch/ns">
    <!-- Generator: Sketch 3.3.2 (12043) - http://www.bohemiancoding.com/sketch -->
    <title>arrow-left</title>
    <desc>Created with Sketch.</desc>
    <defs></defs>
    <g id="Page-1" stroke="none" stroke-width="1" fill="none" fill-rule="evenodd" sketch:type="MSPage">
        <path d="M3.70503125,6.5 L7.80503125,10.6 C8.00503125,10.8 8.10503125,11.1 8.10503125,11.4 C8.10503125,12.1 7.60503125,12.6 6.90503125,12.6 C6.60503125,12.6 6.30503125,12.5 6.10503125,12.3 L1.20503125,7.4 C1.00503125,7.2 0.80503125,6.9 0.80503125,6.5 C0.80503125,6.2 0.90503125,5.9 1.20503125,5.6 L6.10503125,0.7 C6.30503125,0.5 6.60503125,0.4 6.90503125,0.4 C7.60503125,0.4 8.10503125,0.9 8.10503125,1.6 C8.10503125,2 7.90503125,2.3 7.70503125,2.5 L3.70503125,6.5 Z" id="arrow-left" fill="#FFFFFF" sketch:type="MSShapeGroup"></path>
    </g>
</svg>