<?xml version="1.0" encoding="UTF-8" standalone="no"?>
<svg width="10px" height="10px" viewBox="0 0 10 10" version="1.1" xmlns="http://www.w3.org/2000/svg" xmlns:xlink="http://www.w3.org/1999/xlink" xmlns:sketch="http://www.bohemiancoding.com/sketch/ns">
    <!-- Generator: Sketch 3.3.2 (12043) - http://www.bohemiancoding.com/sketch -->
    <title>Shape</title>
    <desc>Created with Sketch.</desc>
    <defs></defs>
    <g id="Page-1" stroke="none" stroke-width="1" fill="none" fill-rule="evenodd" sketch:type="MSPage">
        <path d="M6.765,5.016 L9.657,7.908 C9.88,8.131 10.019,8.44 10.019,8.781 C10.019,9.463 9.466,10.017 8.783,10.017 C8.442,10.017 8.133,9.878 7.909,9.655 L5.018,6.763 L2.125,9.655 C1.902,9.878 1.593,10.017 1.252,10.017 C0.57,10.017 0.016,9.463 0.016,8.781 C0.016,8.44 0.154,8.131 0.378,7.908 L3.27,5.016 L0.378,2.124 C0.154,1.9 0.016,1.591 0.016,1.25 C0.016,0.567 0.57,0.014 1.252,0.014 C1.593,0.014 1.902,0.153 2.125,0.376 L5.018,3.268 L7.909,0.376 C8.133,0.153 8.442,0.014 8.783,0.014 C9.466,0.014 10.019,0.567 10.019,1.25 C10.019,1.591 9.88,1.9 9.657,2.124 L6.765,5.016 Z" id="Shape" fill="#CCCCCC" sketch:type="MSShapeGroup"></path>
    </g>
</svg>