<?xml version="1.0" encoding="UTF-8" standalone="no"?>
<svg width="13px" height="12px" viewBox="0 0 13 12" version="1.1" xmlns="http://www.w3.org/2000/svg" xmlns:xlink="http://www.w3.org/1999/xlink" xmlns:sketch="http://www.bohemiancoding.com/sketch/ns">
    <!-- Generator: Sketch 3.3.2 (12043) - http://www.bohemiancoding.com/sketch -->
    <title>close</title>
    <desc>Created with Sketch.</desc>
    <defs></defs>
    <g id="Page-1" stroke="none" stroke-width="1" fill="none" fill-rule="evenodd" sketch:type="MSPage">
        <path d="M8.31453125,6.0005 L11.8145312,9.5005 C12.3415312,10.0275 12.3415312,10.8825 11.8145312,11.4095 C11.2875312,11.9365 10.4325312,11.9365 9.90553125,11.4095 L6.40553125,7.9095 L2.90453125,11.4095 C2.37753125,11.9365 1.52253125,11.9365 0.99553125,11.4095 C0.46853125,10.8825 0.46853125,10.0275 0.99553125,9.5005 L4.49553125,6.0005 L0.99553125,2.4995 C0.46853125,1.9725 0.46853125,1.1175 0.99553125,0.5905 C1.52253125,0.0635 2.37753125,0.0635 2.90453125,0.5905 L6.40553125,4.0905 L9.90553125,0.5905 C10.4325312,0.0635 11.2875312,0.0635 11.8145312,0.5905 C12.3415312,1.1175 12.3415312,1.9725 11.8145312,2.4995 L8.31453125,6.0005 L8.31453125,6.0005 Z" id="close" fill="#A4A4A4" sketch:type="MSShapeGroup"></path>
    </g>
</svg>