<?xml version="1.0" encoding="UTF-8" standalone="no"?>
<svg width="19px" height="18px" viewBox="0 0 19 18" version="1.1" xmlns="http://www.w3.org/2000/svg" xmlns:xlink="http://www.w3.org/1999/xlink" xmlns:sketch="http://www.bohemiancoding.com/sketch/ns">
    <!-- Generator: Sketch 3.3.2 (12043) - http://www.bohemiancoding.com/sketch -->
    <title>configure</title>
    <desc>Created with Sketch.</desc>
    <defs></defs>
    <g id="Page-1" stroke="none" stroke-width="1" fill="none" fill-rule="evenodd" sketch:type="MSPage">
        <path d="M17.3610312,10.458 L15.6910312,10.458 L15.6910312,10.46 C15.5310312,11.15 15.2610312,11.8 14.9010312,12.39 L16.0820312,13.612 C16.4640312,14.008 16.4520312,14.644 16.0570312,15.026 L15.3380312,15.72 C14.9420312,16.103 14.3060312,16.092 13.9230312,15.696 L12.7850312,14.517 C12.7830312,14.518 12.7820312,14.519 12.7810312,14.52 C12.1910312,14.89 11.5310312,15.17 10.8210312,15.33 L10.8190312,15.33 L10.8190312,17 C10.8190312,17.55 10.3690312,18 9.81903125,18 L8.81903125,18 C8.26903125,18 7.81903125,17.55 7.81903125,17 L7.81903125,15.309 C7.14003125,15.149 6.51003125,14.88 5.94103125,14.52 C5.94003125,14.519 5.93903125,14.518 5.93703125,14.517 L4.79903125,15.696 C4.41603125,16.092 3.78003125,16.103 3.38503125,15.72 L2.66503125,15.026 C2.26903125,14.644 2.25803125,14.008 2.64003125,13.612 L3.82103125,12.39 C3.46103125,11.8 3.19103125,11.15 3.03103125,10.46 L3.03103125,10.458 L1.36103125,10.458 C0.81103125,10.458 0.36103125,10.008 0.36103125,9.458 L0.36103125,8.458 C0.36103125,7.908 0.81103125,7.458 1.36103125,7.458 L3.05203125,7.458 C3.21203125,6.799 3.47103125,6.169 3.82103125,5.61 L2.64103125,4.39 C2.26103125,3.99 2.27103125,3.36 2.66103125,2.97 L3.38103125,2.28 C3.78103125,1.9 4.42103125,1.91 4.80103125,2.3 L5.94103125,3.48 C6.52103125,3.11 7.17103125,2.84 7.86103125,2.68 L7.86103125,1 C7.86103125,0.45 8.31103125,0 8.86103125,0 L9.86103125,0 C10.4110312,0 10.8610312,0.45 10.8610312,1 L10.8610312,2.68 C11.5510312,2.84 12.2010312,3.11 12.7810312,3.48 C12.7820312,3.481 12.7840312,3.482 12.7850312,3.483 L13.9230312,2.304 C14.3060312,1.909 14.9420312,1.897 15.3380312,2.279 L16.0570312,2.974 C16.4520312,3.356 16.4640312,3.993 16.0820312,4.388 L14.9010312,5.61 C15.2510312,6.17 15.5100312,6.799 15.6700312,7.458 L17.3610312,7.458 C17.9110312,7.458 18.3610312,7.908 18.3610312,8.458 L18.3610312,9.458 C18.3610312,10.008 17.9110312,10.458 17.3610312,10.458 L17.3610312,10.458 Z M9.36103125,6.5 C7.98103125,6.5 6.86103125,7.62 6.86103125,9 C6.86103125,10.38 7.98103125,11.5 9.36103125,11.5 C10.7410312,11.5 11.8610312,10.38 11.8610312,9 C11.8610312,7.62 10.7410312,6.5 9.36103125,6.5 L9.36103125,6.5 Z" id="configure" opacity="0.4" fill="#CCCCCC" sketch:type="MSShapeGroup"></path>
    </g>
</svg>