<?xml version="1.0" encoding="UTF-8" standalone="no"?>
<svg width="11px" height="9px" viewBox="0 0 11 9" version="1.1" xmlns="http://www.w3.org/2000/svg" xmlns:xlink="http://www.w3.org/1999/xlink" xmlns:sketch="http://www.bohemiancoding.com/sketch/ns">
    <!-- Generator: Sketch 3.3.2 (12043) - http://www.bohemiancoding.com/sketch -->
    <title>Shape</title>
    <desc>Created with Sketch.</desc>
    <defs></defs>
    <g id="Page-1" stroke="none" stroke-width="1" fill="none" fill-rule="evenodd" sketch:type="MSPage">
        <path d="M10.511,4.716 C10.481,4.911 10.391,5.095 10.241,5.251 L6.701,8.535 C6.311,8.914 5.681,8.914 5.291,8.535 C5.091,8.341 5.001,8.098 5.001,7.855 C5.001,7.602 5.091,7.35 5.291,7.165 L8.131,4.522 L5.291,1.636 C5.091,1.442 5.001,1.199 5.001,0.956 C5.001,0.703 5.091,0.45 5.291,0.266 C5.681,-0.113 6.311,-0.113 6.701,0.266 L10.241,3.851 C10.391,3.997 10.481,4.182 10.511,4.376 C10.531,4.425 10.531,4.483 10.531,4.532 L10.511,4.716 L10.511,4.716 Z M5.511,4.376 C5.531,4.425 5.531,4.483 5.531,4.532 L5.511,4.716 C5.481,4.911 5.391,5.095 5.241,5.251 L1.701,8.535 C1.311,8.914 0.681,8.914 0.291,8.535 C0.091,8.341 0.001,8.098 0.001,7.855 C0.001,7.602 0.091,7.35 0.291,7.165 L3.131,4.522 L0.291,1.636 C0.091,1.442 0.001,1.199 0.001,0.956 C0.001,0.703 0.091,0.45 0.291,0.266 C0.681,-0.113 1.311,-0.113 1.701,0.266 L5.241,3.851 C5.391,3.997 5.481,4.182 5.511,4.376 L5.511,4.376 Z" id="Shape" fill="#CCCCCC" sketch:type="MSShapeGroup"></path>
    </g>
</svg>