<?xml version="1.0" encoding="UTF-8" standalone="no"?>
<svg width="18px" height="18px" viewBox="0 0 18 18" version="1.1" xmlns="http://www.w3.org/2000/svg" xmlns:xlink="http://www.w3.org/1999/xlink" xmlns:sketch="http://www.bohemiancoding.com/sketch/ns">
    <!-- Generator: Sketch 3.3.2 (12043) - http://www.bohemiancoding.com/sketch -->
    <title>Shape</title>
    <desc>Created with Sketch.</desc>
    <defs></defs>
    <g id="Page-1" stroke="none" stroke-width="1" fill="none" fill-rule="evenodd" sketch:type="MSPage">
        <path d="M17.394,4.259 L5.471,16.212 C5.441,16.243 5.41,16.273 5.38,16.283 C5.31,16.364 5.24,16.414 5.159,16.464 C5.119,16.494 5.069,16.525 5.019,16.545 C4.798,16.676 4.557,16.756 4.295,16.776 L1.312,17.743 C1.262,17.753 1.212,17.773 1.161,17.773 C1.031,17.794 0.9,17.783 0.77,17.753 C0.699,17.733 0.619,17.713 0.549,17.673 C0.418,17.612 0.287,17.502 0.197,17.381 C0.137,17.29 0.076,17.199 0.046,17.089 C0.016,16.978 -0.004,16.877 -0.004,16.766 C-0.004,16.706 0.006,16.645 0.016,16.585 C0.026,16.555 0.036,16.515 0.046,16.474 C0.046,16.444 0.056,16.424 0.066,16.394 L1.272,13.504 C1.342,13.141 1.513,12.809 1.794,12.527 L13.718,0.563 C14.481,-0.192 15.807,-0.192 16.561,0.563 L17.404,1.409 C17.776,1.781 17.987,2.295 17.987,2.829 C17.987,3.373 17.776,3.876 17.394,4.259 L17.394,4.259 Z M11.809,5.336 L3.231,13.937 L3.231,13.947 L3.21,13.957 L3.221,13.967 C3.221,14.027 3.201,14.088 3.18,14.138 L2.759,15.155 L4.004,14.752 L4.044,14.793 L4.054,14.793 L4.135,14.712 L12.643,6.172 L11.809,5.336 L11.809,5.336 Z M15.144,1.993 L13.185,3.957 L14.019,4.793 L15.978,2.829 L15.144,1.993 L15.144,1.993 Z" id="Shape" fill="#CCCCCC" sketch:type="MSShapeGroup"></path>
    </g>
</svg>