<?xml version="1.0" encoding="UTF-8" standalone="no"?>
<svg width="64px" height="77px" viewBox="0 0 64 77" version="1.1" xmlns="http://www.w3.org/2000/svg" xmlns:xlink="http://www.w3.org/1999/xlink" xmlns:sketch="http://www.bohemiancoding.com/sketch/ns">
    <!-- Generator: Sketch 3.3.3 (12081) - http://www.bohemiancoding.com/sketch -->
    <title>Shape</title>
    <desc>Created with Sketch.</desc>
    <defs></defs>
    <g id="Page-1" stroke="none" stroke-width="1" fill="none" fill-rule="evenodd" sketch:type="MSPage">
        <path d="M52.779,42.54 L43.062,39.59 C59.483,39.59 50.281,0.712 34.48,0.712 L30.062,0.712 C11.609,0.712 5.901,39.59 21.48,39.59 L11.763,42.54 C4.921,44.509 0.84,74.113 0.84,74.113 C0.829,74.214 0.821,74.316 0.821,74.419 C0.821,75.845 1.974,77 3.398,77 L61.145,77 C62.568,77 63.721,75.845 63.721,74.419 C63.721,74.316 63.713,74.214 63.702,74.113 C63.702,74.113 59.621,44.509 52.779,42.54 L52.779,42.54 Z M26.045,41.021 C26.308,40.835 26.651,40.808 26.939,40.952 C27.93,41.446 28.911,41.697 29.854,41.697 L34.688,41.697 C35.631,41.697 36.612,41.446 37.603,40.952 C37.89,40.809 38.234,40.836 38.496,41.022 C38.759,41.208 38.898,41.523 38.859,41.843 L38.224,47.01 C38.213,47.1 38.187,47.188 38.149,47.271 L33.064,58.267 C32.921,58.576 32.611,58.773 32.271,58.773 C31.931,58.773 31.621,58.576 31.478,58.267 L26.39,47.271 C26.351,47.188 26.326,47.099 26.315,47.009 L25.683,41.841 C25.643,41.522 25.783,41.207 26.045,41.021 L26.045,41.021 Z M20.719,24.324 C20.471,24.162 20.321,23.886 20.321,23.59 L20.321,22.15 C20.321,21.667 20.713,21.275 21.195,21.275 L21.552,21.275 L21.552,18.266 C21.552,17.963 21.709,17.682 21.966,17.522 C22.224,17.363 22.545,17.348 22.816,17.483 C24.159,18.155 25.951,18.232 27.183,18.232 C28.014,18.232 28.849,18.19 29.585,18.153 C29.813,18.142 30.034,18.131 30.246,18.122 C30.539,18.109 30.837,18.102 31.131,18.102 C34.728,18.102 37.746,19.042 39.949,19.729 C40.915,20.03 41.677,20.268 42.232,20.342 C42.666,20.399 42.99,20.77 42.99,21.209 L42.99,21.275 L43.347,21.275 C43.83,21.275 44.221,21.667 44.221,22.15 L44.221,23.59 C44.221,23.886 44.071,24.162 43.823,24.324 L42.975,24.875 L42.928,25.236 C42.652,27.328 41.48,30.038 39.793,32.486 C37.657,35.589 35.655,36.978 34.618,36.978 L29.925,36.978 C28.888,36.978 26.885,35.589 24.749,32.486 C23.062,30.038 21.89,27.328 21.614,25.238 L21.567,24.875 L20.719,24.324 L20.719,24.324 Z" id="Shape" fill="#A4A4A4" sketch:type="MSShapeGroup"></path>
    </g>
</svg>