<?xml version="1.0" encoding="UTF-8" standalone="no"?>
<svg width="55px" height="67px" viewBox="0 0 55 67" version="1.1" xmlns="http://www.w3.org/2000/svg" xmlns:xlink="http://www.w3.org/1999/xlink" xmlns:sketch="http://www.bohemiancoding.com/sketch/ns">
    <!-- Generator: Sketch 3.3.2 (12043) - http://www.bohemiancoding.com/sketch -->
    <title>Shape</title>
    <desc>Created with Sketch.</desc>
    <defs></defs>
    <g id="Page-1" stroke="none" stroke-width="1" fill="none" fill-rule="evenodd" sketch:type="MSPage">
        <path d="M51.983,67.001 L3.997,67.001 C2.332,67.001 0.977,65.658 0.977,64.008 L0.977,3.144 C0.977,1.493 2.332,0.151 3.997,0.151 L37.217,0.151 L37.217,0.237 C37.746,0.056 38.357,0.162 38.777,0.579 L53.976,16.045 L54.112,16.045 L54.112,16.183 L54.417,16.493 C54.596,16.671 54.702,16.887 54.771,17.113 L55.003,17.113 L55.003,64.008 C55.003,65.658 53.649,67.001 51.983,67.001 L51.983,67.001 Z M39.012,5.108 L39.012,16.045 L49.761,16.045 L39.012,5.108 L39.012,5.108 Z M51.983,19.038 L39.012,19.038 C37.347,19.038 35.993,17.695 35.993,16.045 L35.993,3.144 L3.997,3.144 L3.997,64.008 L51.983,64.008 L51.983,19.038 L51.983,19.038 Z M14.5,49 C14.814,49 15.112,49.055 15.401,49.132 L20.891,41.812 C20.343,41.194 20,40.391 20,39.5 C20,37.567 21.567,36 23.5,36 C25.433,36 27,37.567 27,39.5 C27,39.817 26.944,40.119 26.865,40.411 L30.725,43.499 C31.247,43.19 31.849,43 32.5,43 C32.806,43 33.098,43.052 33.381,43.126 L38.909,34.834 C38.35,34.214 38,33.401 38,32.5 C38,30.567 39.567,29 41.5,29 C43.433,29 45,30.567 45,32.5 C45,34.433 43.433,36 41.5,36 C41.194,36 40.902,35.948 40.619,35.874 L35.091,44.166 C35.65,44.786 36,45.599 36,46.5 C36,48.433 34.433,50 32.5,50 C30.567,50 29,48.433 29,46.5 C29,45.95 29.138,45.436 29.365,44.972 L25.799,42.12 C25.183,42.661 24.385,43 23.5,43 C23.186,43 22.888,42.945 22.599,42.868 L17.109,50.188 C17.657,50.806 18,51.609 18,52.5 C18,54.433 16.433,56 14.5,56 C12.567,56 11,54.433 11,52.5 C11,50.567 12.567,49 14.5,49 L14.5,49 Z M43.25,32.5 C43.25,31.534 42.466,30.75 41.5,30.75 C40.533,30.75 39.75,31.534 39.75,32.5 C39.75,33.466 40.533,34.25 41.5,34.25 C42.466,34.25 43.25,33.466 43.25,32.5 L43.25,32.5 Z M32.5,48.25 C33.467,48.25 34.25,47.466 34.25,46.5 C34.25,45.533 33.467,44.75 32.5,44.75 C31.534,44.75 30.75,45.533 30.75,46.5 C30.75,47.466 31.534,48.25 32.5,48.25 L32.5,48.25 Z M23.5,41.25 C24.467,41.25 25.25,40.467 25.25,39.5 C25.25,38.534 24.467,37.75 23.5,37.75 C22.534,37.75 21.75,38.534 21.75,39.5 C21.75,40.467 22.534,41.25 23.5,41.25 L23.5,41.25 Z M14.5,54.25 C15.466,54.25 16.25,53.466 16.25,52.5 C16.25,51.533 15.466,50.75 14.5,50.75 C13.534,50.75 12.75,51.533 12.75,52.5 C12.75,53.466 13.534,54.25 14.5,54.25 L14.5,54.25 Z M12.05,23.935 L28.157,23.935 C28.711,23.935 29.164,24.384 29.164,24.933 L29.164,25.93 C29.164,26.479 28.711,26.928 28.157,26.928 L12.05,26.928 C11.497,26.928 11.044,26.479 11.044,25.93 L11.044,24.933 C11.044,24.384 11.497,23.935 12.05,23.935 L12.05,23.935 Z M11.044,18.933 C11.044,18.384 11.497,17.935 12.05,17.935 L28.157,17.935 C28.711,17.935 29.164,18.384 29.164,18.933 L29.164,19.93 C29.164,20.479 28.711,20.928 28.157,20.928 L12.05,20.928 C11.497,20.928 11.044,20.479 11.044,19.93 L11.044,18.933 L11.044,18.933 Z M28.217,14.951 L12.05,14.951 C11.497,14.951 11.044,14.502 11.044,13.953 L11.044,12.955 C11.044,12.406 11.497,11.957 12.05,11.957 L28.217,11.957 C28.77,11.957 29.223,12.406 29.223,12.955 L29.223,13.953 C29.223,14.502 28.77,14.951 28.217,14.951 L28.217,14.951 Z" id="Shape" fill="#CCCCCC" sketch:type="MSShapeGroup"></path>
    </g>
</svg>