<?xml version="1.0" encoding="UTF-8" standalone="no"?>
<svg width="64px" height="77px" viewBox="0 0 64 77" version="1.1" xmlns="http://www.w3.org/2000/svg" xmlns:xlink="http://www.w3.org/1999/xlink" xmlns:sketch="http://www.bohemiancoding.com/sketch/ns">
    <!-- Generator: Sketch 3.3.3 (12081) - http://www.bohemiancoding.com/sketch -->
    <title>Shape</title>
    <desc>Created with Sketch.</desc>
    <defs></defs>
    <g id="Page-1" stroke="none" stroke-width="1" fill="none" fill-rule="evenodd" sketch:type="MSPage">
        <path d="M60.809,77 L3.048,77 C1.624,77 0.47,75.845 0.47,74.419 C0.47,74.282 0.484,74.148 0.505,74.017 L0.504,74.017 C0.504,74.017 4.601,44.444 11.437,42.477 L21.147,39.53 C21.381,38.82 21.902,38.206 22.629,37.686 C21.829,36.795 21.153,35.893 20.639,35.147 C19.421,33.379 18.407,31.474 17.704,29.636 C17.358,28.859 17.063,28.08 16.825,27.317 C15.879,26.523 15.323,25.338 15.323,24.096 L15.323,21.052 C15.323,20.179 15.597,19.324 16.102,18.615 L16.102,14.329 C16.102,6.81 22.212,0.694 29.721,0.694 L34.136,0.694 C41.645,0.694 47.754,6.81 47.754,14.329 L47.754,18.615 C48.259,19.323 48.534,20.178 48.534,21.052 L48.534,24.096 C48.534,25.339 47.977,26.524 47.032,27.318 C46.793,28.081 46.498,28.86 46.152,29.635 C45.45,31.474 44.436,33.379 43.217,35.148 C42.704,35.894 42.028,36.795 41.227,37.686 C41.955,38.206 42.475,38.82 42.71,39.531 L52.419,42.477 C59.256,44.444 63.386,73.182 63.386,74.419 C63.386,75.845 62.233,77 60.809,77 L60.809,77 Z M25.971,47.009 C25.982,47.099 26.008,47.188 26.046,47.271 L31.135,58.267 C31.278,58.576 31.587,58.773 31.927,58.773 C32.268,58.773 32.577,58.576 32.72,58.267 L37.806,47.271 C37.844,47.188 37.869,47.1 37.88,47.01 L38.515,41.843 C38.554,41.523 38.415,41.208 38.153,41.022 C37.89,40.836 37.547,40.809 37.259,40.952 C36.268,41.446 35.287,41.697 34.344,41.697 L29.511,41.697 C28.567,41.697 27.586,41.446 26.595,40.952 C26.307,40.808 25.964,40.835 25.701,41.021 C25.439,41.207 25.299,41.522 25.339,41.841 L25.971,47.009 L25.971,47.009 Z M42.577,25.191 L42.624,24.831 L43.471,24.28 C43.719,24.119 43.868,23.843 43.868,23.547 L43.868,22.108 C43.868,21.626 43.477,21.234 42.995,21.234 L42.519,21.234 C42.451,21.119 42.356,21.018 42.24,20.943 C41.992,20.781 41.679,20.757 41.409,20.879 C40.241,21.402 39.079,21.668 37.955,21.668 C35.969,21.668 34.172,20.85 32.612,19.236 C31.361,17.942 29.727,17.286 27.757,17.286 C25.288,17.286 22.903,18.293 21.701,18.894 C21.405,19.042 21.218,19.345 21.218,19.676 L21.218,21.235 L20.862,21.235 C20.38,21.235 19.989,21.626 19.989,22.108 L19.989,23.547 C19.989,23.843 20.138,24.119 20.386,24.28 L21.233,24.831 L21.28,25.193 C21.556,27.282 22.727,29.988 24.413,32.433 C26.547,35.533 28.548,36.921 29.584,36.921 L34.273,36.921 C35.309,36.921 37.31,35.534 39.445,32.434 C41.13,29.988 42.301,27.281 42.577,25.191 L42.577,25.191 Z" id="Shape" fill="#A4A4A4" sketch:type="MSShapeGroup"></path>
    </g>
</svg>