<?xml version="1.0" encoding="UTF-8" standalone="no"?>
<svg width="18px" height="18px" viewBox="0 0 18 18" version="1.1" xmlns="http://www.w3.org/2000/svg" xmlns:xlink="http://www.w3.org/1999/xlink" xmlns:sketch="http://www.bohemiancoding.com/sketch/ns">
    <!-- Generator: Sketch 3.3.2 (12043) - http://www.bohemiancoding.com/sketch -->
    <title>Shape</title>
    <desc>Created with Sketch.</desc>
    <defs></defs>
    <g id="Page-1" stroke="none" stroke-width="1" fill="none" fill-rule="evenodd" sketch:type="MSPage">
        <path d="M16.8731173,5.002 L14.8601173,5.002 L14.8601173,7.034 C14.8601173,7.567 14.4281173,8.004 13.9001173,8.004 L13.9001173,8.004 C13.3721173,8.004 12.9401173,7.567 12.9401173,7.034 L12.9401173,5.002 L10.8651173,5.002 C10.3371173,5.002 9.90511731,4.566 9.90511731,4.033 L9.90511731,4.033 C9.90511731,3.5 10.3371173,3.064 10.8651173,3.064 L12.9401173,3.064 L12.9401173,0.969 C12.9401173,0.436 13.3721173,-8.8817842e-16 13.9001173,-8.8817842e-16 L13.9001173,-8.8817842e-16 C14.4281173,-8.8817842e-16 14.8601173,0.436 14.8601173,0.969 L14.8601173,3.064 L16.8731173,3.064 C17.4011173,3.064 17.8331173,3.5 17.8331173,4.033 L17.8331173,4.033 C17.8331173,4.566 17.4011173,5.002 16.8731173,5.002 L16.8731173,5.002 Z M8.53711731,12.486 C8.43811731,12.486 8.32911731,12.466 8.22011731,12.436 C7.70411731,12.256 7.42711731,11.685 7.59511731,11.165 C7.85311731,10.385 7.44711731,8.914 6.15811731,7.623 C5.42511731,6.883 4.55311731,6.353 3.74011731,6.173 C3.09611731,6.023 2.56111731,6.103 2.27311731,6.393 C1.98611731,6.693 1.90711731,7.223 2.05511731,7.874 C2.24411731,8.694 2.76911731,9.584 3.49211731,10.315 C3.87911731,10.705 3.87911731,11.335 3.50211731,11.725 C3.11611731,12.126 2.48111731,12.116 2.09511731,11.725 C1.09411731,10.725 0.40011731,9.514 0.12311731,8.334 C-0.18488269,6.993 0.0931173102,5.772 0.86611731,4.982 C1.64911731,4.192 2.85811731,3.912 4.18611731,4.222 C5.35511731,4.492 6.55511731,5.192 7.55611731,6.203 C9.25011731,7.904 10.0231173,10.155 9.47811731,11.805 C9.34011731,12.216 8.95311731,12.486 8.53711731,12.486 L8.53711731,12.486 Z M5.95011731,9.664 C6.47511731,9.835 6.75311731,10.405 6.57411731,10.925 C6.31711731,11.705 6.73311731,13.176 8.02111731,14.477 C9.47811731,15.948 11.2721173,16.328 11.9071173,15.697 C12.1941173,15.407 12.2731173,14.867 12.1251173,14.217 C11.9361173,13.396 11.4111173,12.516 10.6781173,11.776 C10.2911173,11.385 10.2911173,10.755 10.6781173,10.365 C11.0641173,9.975 11.6981173,9.975 12.0851173,10.365 C13.0761173,11.365 13.7801173,12.576 14.0571173,13.766 C14.3641173,15.097 14.0871173,16.318 13.3041173,17.108 C12.7191173,17.708 11.9161173,17.999 11.0341173,17.999 C9.61711731,17.999 7.98211731,17.258 6.62411731,15.888 C4.92911731,14.187 4.15611731,11.936 4.70111731,10.295 C4.87011731,9.765 5.43511731,9.484 5.95011731,9.664 L5.95011731,9.664 Z" id="Shape" fill="#CCCCCC" sketch:type="MSShapeGroup"></path>
    </g>
</svg>