<?xml version="1.0" encoding="UTF-8" standalone="no"?>
<svg width="18px" height="18px" viewBox="0 0 18 18" version="1.1" xmlns="http://www.w3.org/2000/svg" xmlns:xlink="http://www.w3.org/1999/xlink" xmlns:sketch="http://www.bohemiancoding.com/sketch/ns">
    <!-- Generator: Sketch 3.3.2 (12043) - http://www.bohemiancoding.com/sketch -->
    <title>Shape</title>
    <desc>Created with Sketch.</desc>
    <defs></defs>
    <g id="Page-1" stroke="none" stroke-width="1" fill="none" fill-rule="evenodd" sketch:type="MSPage">
        <path d="M17,5 L15,5 L15,7 C15,7.55 14.55,8 14,8 C13.45,8 13,7.55 13,7 L13,5 L11,5 C10.45,5 10,4.55 10,4 C10,3.45 10.45,3 11,3 L13,3 L13,1 C13,0.45 13.45,0 14,0 C14.55,0 15,0.45 15,1 L15,3 L17,3 C17.55,3 18,3.45 18,4 C18,4.55 17.55,5 17,5 L17,5 Z M14,18 L8,18 L8,12 L14,12 L14,18 L14,18 Z M0,12 L6,12 L6,18 L0,18 L0,12 L0,12 Z M0,4 L6,4 L6,10 L0,10 L0,4 L0,4 Z" id="Shape" fill="#CCCCCC" sketch:type="MSShapeGroup"></path>
    </g>
</svg>