<?xml version="1.0" encoding="UTF-8" standalone="no"?>
<svg width="18px" height="15px" viewBox="0 0 18 15" version="1.1" xmlns="http://www.w3.org/2000/svg" xmlns:xlink="http://www.w3.org/1999/xlink" xmlns:sketch="http://www.bohemiancoding.com/sketch/ns">
    <!-- Generator: Sketch 3.3.2 (12043) - http://www.bohemiancoding.com/sketch -->
    <title>menu</title>
    <desc>Created with Sketch.</desc>
    <defs></defs>
    <g id="Page-1" stroke="none" stroke-width="1" fill="none" fill-rule="evenodd" sketch:type="MSPage">
        <path d="M16.1002812,9 L2.10028125,9 C1.27228125,9 0.60028125,8.328 0.60028125,7.5 C0.60028125,6.672 1.27228125,6 2.10028125,6 L16.1002812,6 C16.9282812,6 17.6002812,6.672 17.6002812,7.5 C17.6002812,8.328 16.9282812,9 16.1002812,9 L16.1002812,9 Z M16.1002812,3 L2.10028125,3 C1.27228125,3 0.60028125,2.328 0.60028125,1.5 C0.60028125,0.672 1.27228125,0 2.10028125,0 L16.1002812,0 C16.9282812,0 17.6002812,0.672 17.6002812,1.5 C17.6002812,2.328 16.9282812,3 16.1002812,3 L16.1002812,3 Z M2.10028125,12 L16.1002812,12 C16.9282812,12 17.6002812,12.672 17.6002812,13.5 C17.6002812,14.328 16.9282812,15 16.1002812,15 L2.10028125,15 C1.27228125,15 0.60028125,14.328 0.60028125,13.5 C0.60028125,12.672 1.27228125,12 2.10028125,12 L2.10028125,12 Z" id="menu" fill="#FFD2C3" sketch:type="MSShapeGroup"></path>
    </g>
</svg>