<?xml version="1.0" encoding="utf-8"?><!DOCTYPE svg PUBLIC "-//W3C//DTD SVG 1.1//EN" "http://www.w3.org/Graphics/SVG/1.1/DTD/svg11.dtd"><svg version="1.1" baseProfile="full" xmlns="http://www.w3.org/2000/svg" xmlns:xlink="http://www.w3.org/1999/xlink" xmlns:ev="http://www.w3.org/2001/xml-events"   height="27px"   width="34px" ><path fill="rgb( 164, 164, 164 )" d="M30.5,7 C30.194,7 29.902,6.94799999999998 29.619,6.87400000000002 C29.619,6.87400000000002 24.091,15.1660000000001 24.091,15.1660000000001 C24.65,15.7859999999999 25,16.599 25,17.5 C25,19.433 23.433,21 21.5,21 C19.567,21 18,19.433 18,17.5 C18,16.95 18.138,16.436 18.365,15.972 C18.365,15.972 14.799,13.12 14.799,13.12 C14.183,13.6609999999999 13.385,14 12.5,14 C12.186,14 11.888,13.946 11.599,13.8680000000001 C11.599,13.8680000000001 6.10900000000004,21.188 6.10900000000004,21.188 C6.65700000000004,21.806 7,22.609 7,23.5 C7,25.433 5.43299999999999,27 3.5,27 C1.56700000000001,27 0,25.433 0,23.5 C0,21.567 1.56700000000001,20 3.5,20 C3.81399999999996,20 4.11199999999997,20.0549999999999 4.40099999999995,20.1319999999999 C4.40099999999995,20.1319999999999 9.89099999999996,12.812 9.89099999999996,12.812 C9.34299999999996,12.194 9,11.391 9,10.5 C9,8.56700000000001 10.567,7 12.5,7 C14.433,7 16,8.56700000000001 16,10.5 C16,10.817 15.944,11.119 15.865,11.4109999999999 C15.865,11.4109999999999 19.725,14.499 19.725,14.499 C20.247,14.1900000000001 20.849,14 21.5,14 C21.806,14 22.098,14.052 22.381,14.126 C22.381,14.126 27.909,5.83399999999995 27.909,5.83399999999995 C27.35,5.21400000000006 27,4.40099999999995 27,3.5 C27,1.56700000000001 28.567,0 30.5,0 C32.433,0 34,1.56700000000001 34,3.5 C34,5.43299999999999 32.433,7 30.5,7 ZM3.5,21.75 C2.53399999999999,21.75 1.75,22.534 1.75,23.5 C1.75,24.467 2.53399999999999,25.25 3.5,25.25 C4.46699999999998,25.25 5.25,24.467 5.25,23.5 C5.25,22.534 4.46699999999998,21.75 3.5,21.75 ZM12.5,8.75 C11.534,8.75 10.75,9.53399999999999 10.75,10.5 C10.75,11.467 11.534,12.25 12.5,12.25 C13.467,12.25 14.25,11.467 14.25,10.5 C14.25,9.53399999999999 13.467,8.75 12.5,8.75 ZM19.75,17.5 C19.75,18.466 20.534,19.25 21.5,19.25 C22.467,19.25 23.25,18.466 23.25,17.5 C23.25,16.534 22.467,15.75 21.5,15.75 C20.534,15.75 19.75,16.534 19.75,17.5 ZM30.5,1.75 C29.534,1.75 28.75,2.53399999999999 28.75,3.5 C28.75,4.46600000000001 29.534,5.25 30.5,5.25 C31.466,5.25 32.25,4.46600000000001 32.25,3.5 C32.25,2.53399999999999 31.466,1.75 30.5,1.75 Z "/></svg>