<?xml version="1.0" encoding="UTF-8" standalone="no"?>
<svg width="28px" height="23px" viewBox="0 0 28 23" version="1.1" xmlns="http://www.w3.org/2000/svg" xmlns:xlink="http://www.w3.org/1999/xlink" xmlns:sketch="http://www.bohemiancoding.com/sketch/ns">
    <!-- Generator: Sketch 3.3.3 (12081) - http://www.bohemiancoding.com/sketch -->
    <title>Shape</title>
    <desc>Created with Sketch.</desc>
    <defs></defs>
    <g id="Page-1" stroke="none" stroke-width="1" fill="none" fill-rule="evenodd" sketch:type="MSPage">
        <path d="M26,13 L10,13 C9.172,13 8.5,12.328 8.5,11.5 C8.5,10.672 9.172,10 10,10 L26,10 C26.828,10 27.5,10.672 27.5,11.5 C27.5,12.328 26.828,13 26,13 L26,13 Z M26,4 L10,4 C9.172,4 8.5,3.328 8.5,2.5 C8.5,1.672 9.172,1 10,1 L26,1 C26.828,1 27.5,1.672 27.5,2.5 C27.5,3.328 26.828,4 26,4 L26,4 Z M2.5,23 C1.119,23 0,21.881 0,20.5 C0,19.119 1.119,18 2.5,18 C3.881,18 5,19.119 5,20.5 C5,21.881 3.881,23 2.5,23 L2.5,23 Z M2.5,19.5 C1.948,19.5 1.5,19.948 1.5,20.5 C1.5,21.052 1.948,21.5 2.5,21.5 C3.052,21.5 3.5,21.052 3.5,20.5 C3.5,19.948 3.052,19.5 2.5,19.5 L2.5,19.5 Z M2.5,14 C1.119,14 0,12.881 0,11.5 C0,10.119 1.119,9 2.5,9 C3.881,9 5,10.119 5,11.5 C5,12.881 3.881,14 2.5,14 L2.5,14 Z M2.5,10.5 C1.948,10.5 1.5,10.948 1.5,11.5 C1.5,12.052 1.948,12.5 2.5,12.5 C3.052,12.5 3.5,12.052 3.5,11.5 C3.5,10.948 3.052,10.5 2.5,10.5 L2.5,10.5 Z M2.5,5 C1.119,5 0,3.881 0,2.5 C0,1.119 1.119,0 2.5,0 C3.881,0 5,1.119 5,2.5 C5,3.881 3.881,5 2.5,5 L2.5,5 Z M2.5,1.5 C1.948,1.5 1.5,1.948 1.5,2.5 C1.5,3.052 1.948,3.5 2.5,3.5 C3.052,3.5 3.5,3.052 3.5,2.5 C3.5,1.948 3.052,1.5 2.5,1.5 L2.5,1.5 Z M10,19 L26,19 C26.828,19 27.5,19.672 27.5,20.5 C27.5,21.328 26.828,22 26,22 L10,22 C9.172,22 8.5,21.328 8.5,20.5 C8.5,19.672 9.172,19 10,19 L10,19 Z" id="Shape" fill="#A4A4A4" sketch:type="MSShapeGroup"></path>
    </g>
</svg>