<?xml version="1.0" encoding="UTF-8" standalone="no"?>
<svg width="61px" height="68px" viewBox="0 0 61 68" version="1.1" xmlns="http://www.w3.org/2000/svg" xmlns:xlink="http://www.w3.org/1999/xlink" xmlns:sketch="http://www.bohemiancoding.com/sketch/ns">
    <!-- Generator: Sketch 3.3.2 (12043) - http://www.bohemiancoding.com/sketch -->
    <title>path-1</title>
    <desc>Created with Sketch.</desc>
    <defs></defs>
    <g id="Page-1" stroke="none" stroke-width="1" fill="none" fill-rule="evenodd" sketch:type="MSPage">
        <path d="M60.408,60.86 C59.821,61.443 58.86,61.443 58.272,60.86 L54.368,56.99 L54.368,64.852 C54.368,66.502 53.013,67.845 51.348,67.845 L3.028,67.845 C1.363,67.845 0.008,66.502 0.008,64.852 L0.008,3.988 C0.008,2.337 1.363,0.994 3.028,0.994 L36.248,0.994 L36.248,1.08 C36.778,0.9 37.388,1.005 37.809,1.422 L53.865,17.337 C54.044,17.514 54.15,17.731 54.219,17.956 L54.368,17.956 L54.368,52.757 L60.408,58.744 C60.995,59.326 60.995,60.278 60.408,60.86 L60.408,60.86 Z M34.738,15.961 L11.082,15.961 C10.528,15.961 10.075,15.512 10.075,14.963 L10.075,13.965 C10.075,13.417 10.528,12.968 11.082,12.968 L34.738,12.968 L34.738,3.988 L3.028,3.988 L3.028,64.852 L51.348,64.852 L51.348,53.997 L44.487,47.197 C41.849,49.781 38.228,51.382 34.235,51.382 C29.609,51.382 25.488,49.232 22.811,45.894 L11.082,45.894 C10.528,45.894 10.075,45.445 10.075,44.896 L10.075,43.898 C10.075,43.35 10.528,42.901 11.082,42.901 L20.963,42.901 C20.12,41.074 19.638,39.051 19.638,36.914 C19.638,36.577 19.666,36.247 19.689,35.916 L11.396,35.916 C10.67,35.916 10.075,35.327 10.075,34.607 L10.075,34.233 C10.075,33.512 10.67,32.923 11.396,32.923 L19.827,32.923 C19.958,32.923 20.077,32.962 20.197,32.997 C20.988,30.215 22.594,27.772 24.751,25.939 L11.082,25.939 C10.528,25.939 10.075,25.49 10.075,24.941 L10.075,23.943 C10.075,23.394 10.528,22.945 11.082,22.945 L27.188,22.945 C27.682,22.945 28.077,23.309 28.16,23.776 C30.013,22.931 32.066,22.446 34.235,22.446 C42.283,22.446 48.831,28.937 48.831,36.914 C48.831,39.853 47.937,42.587 46.412,44.872 L51.348,49.764 L51.348,19.453 L37.758,19.453 C36.093,19.453 34.738,18.11 34.738,16.46 L34.738,15.961 L34.738,15.961 Z M45.811,36.914 C45.811,30.587 40.618,25.44 34.235,25.44 C27.852,25.44 22.658,30.587 22.658,36.914 C22.658,43.241 27.852,48.388 34.235,48.388 C40.618,48.388 45.811,43.241 45.811,36.914 L45.811,36.914 Z M37.758,5.606 L37.758,16.46 L48.709,16.46 L37.758,5.606 L37.758,5.606 Z M11.082,52.878 L43.295,52.878 C43.848,52.878 44.301,53.327 44.301,53.876 L44.301,54.874 C44.301,55.423 43.848,55.872 43.295,55.872 L11.082,55.872 C10.528,55.872 10.075,55.423 10.075,54.874 L10.075,53.876 C10.075,53.327 10.528,52.878 11.082,52.878 L11.082,52.878 Z" id="path-1" fill="#CCCCCC" sketch:type="MSShapeGroup"></path>
    </g>
</svg>