<?xml version="1.0" encoding="UTF-8" standalone="no"?>
<svg width="15px" height="15px" viewBox="0 0 15 15" version="1.1" xmlns="http://www.w3.org/2000/svg" xmlns:xlink="http://www.w3.org/1999/xlink" xmlns:sketch="http://www.bohemiancoding.com/sketch/ns">
    <!-- Generator: Sketch 3.3.2 (12043) - http://www.bohemiancoding.com/sketch -->
    <title>Shape</title>
    <desc>Created with Sketch.</desc>
    <defs></defs>
    <g id="Page-1" stroke="none" stroke-width="1" fill="none" fill-rule="evenodd" sketch:type="MSPage">
        <path d="M13,8.915 L9,8.915 L9,12.915 C9,13.744 8.328,14.415 7.5,14.415 C6.672,14.415 6,13.744 6,12.915 L6,8.915 L2,8.915 C1.172,8.915 0.5,8.244 0.5,7.415 C0.5,6.587 1.172,5.915 2,5.915 L6,5.915 L6,1.915 C6,1.087 6.672,0.415 7.5,0.415 C8.328,0.415 9,1.087 9,1.915 L9,5.915 L13,5.915 C13.828,5.915 14.5,6.587 14.5,7.415 C14.5,8.244 13.828,8.915 13,8.915 L13,8.915 Z" id="Shape" fill="#55BBCC" sketch:type="MSShapeGroup"></path>
    </g>
</svg>