<?xml version="1.0" encoding="UTF-8" standalone="no"?>
<svg width="15px" height="15px" viewBox="0 0 15 15" version="1.1" xmlns="http://www.w3.org/2000/svg" xmlns:xlink="http://www.w3.org/1999/xlink" xmlns:sketch="http://www.bohemiancoding.com/sketch/ns">
    <!-- Generator: Sketch 3.3.2 (12043) - http://www.bohemiancoding.com/sketch -->
    <title>search</title>
    <desc>Created with Sketch.</desc>
    <defs></defs>
    <g id="Page-1" stroke="none" stroke-width="1" fill="none" fill-rule="evenodd" sketch:type="MSPage">
        <path d="M14.66375,12.654375 L11.53075,9.520375 C11.51375,9.504375 11.49475,9.492375 11.47675,9.476375 C12.09375,8.541375 12.45375,7.422375 12.45375,6.218375 C12.45375,2.943375 9.79875,0.288375 6.52375,0.288375 C3.24875,0.288375 0.59375,2.943375 0.59375,6.218375 C0.59375,9.493375 3.24875,12.148375 6.52375,12.148375 C7.72775,12.148375 8.84675,11.788375 9.78275,11.171375 C9.79775,11.189375 9.80975,11.208375 9.82575,11.225375 L12.95975,14.358375 C13.42975,14.829375 14.19375,14.829375 14.66375,14.358375 C15.13475,13.887375 15.13475,13.124375 14.66375,12.654375 L14.66375,12.654375 Z M6.52375,10.092375 C4.38375,10.092375 2.64975,8.358375 2.64975,6.218375 C2.64975,4.078375 4.38375,2.344375 6.52375,2.344375 C8.66375,2.344375 10.39775,4.078375 10.39775,6.218375 C10.39775,8.358375 8.66375,10.092375 6.52375,10.092375 L6.52375,10.092375 Z" id="search" opacity="0.6" fill="#404040" sketch:type="MSShapeGroup"></path>
    </g>
</svg>