<?xml version="1.0" encoding="UTF-8" standalone="no"?>
<svg width="17px" height="19px" viewBox="0 0 17 19" version="1.1" xmlns="http://www.w3.org/2000/svg" xmlns:xlink="http://www.w3.org/1999/xlink" xmlns:sketch="http://www.bohemiancoding.com/sketch/ns">
    <!-- Generator: Sketch 3.3.2 (12043) - http://www.bohemiancoding.com/sketch -->
    <title>upload</title>
    <desc>Created with Sketch.</desc>
    <defs></defs>
    <g id="Page-1" stroke="none" stroke-width="1" fill="none" fill-rule="evenodd" sketch:type="MSPage">
        <path d="M15.709,18.59 C15.493,18.806 15.229,18.914 14.917,18.914 L1.139,18.914 C0.826,18.914 0.562,18.806 0.346,18.59 C0.13,18.374 0.022,18.11 0.022,17.797 L0.022,11.97 C0.022,11.658 0.13,11.391 0.346,11.169 C0.562,10.946 0.826,10.835 1.139,10.835 L3.092,10.835 C3.567,13.132 5.6,14.859 8.038,14.859 C10.475,14.859 12.508,13.132 12.984,10.835 L14.917,10.835 C15.229,10.835 15.493,10.946 15.709,11.169 C15.925,11.391 16.033,11.658 16.033,11.97 L16.033,17.797 C16.033,18.11 15.925,18.374 15.709,18.59 L15.709,18.59 Z M12.399,6.836 L8.682,10.553 C8.518,10.723 8.288,10.829 8.033,10.829 L8.031,10.829 L8.029,10.829 C7.774,10.829 7.544,10.723 7.38,10.553 L7.38,10.553 L3.663,6.836 L3.665,6.834 C3.509,6.672 3.414,6.452 3.414,6.21 C3.414,5.712 3.818,5.308 4.316,5.308 C4.59,5.308 4.834,5.43 5,5.622 L7.032,7.655 L7.032,1.828 C7.032,1.276 7.48,0.828 8.032,0.828 C8.584,0.828 9.032,1.276 9.032,1.828 L9.032,7.652 L11.124,5.56 L11.124,5.561 C11.286,5.404 11.507,5.308 11.75,5.308 C12.248,5.308 12.652,5.712 12.652,6.21 C12.652,6.453 12.555,6.673 12.399,6.836 L12.399,6.836 L12.399,6.836 Z" id="upload" fill="#FFFFFF" sketch:type="MSShapeGroup"></path>
    </g>
</svg>