<?xml version="1.0" encoding="UTF-8" standalone="no"?>
<svg width="22px" height="15px" viewBox="0 0 22 15" version="1.1" xmlns="http://www.w3.org/2000/svg" xmlns:xlink="http://www.w3.org/1999/xlink" xmlns:sketch="http://www.bohemiancoding.com/sketch/ns">
    <!-- Generator: Sketch 3.3.2 (12043) - http://www.bohemiancoding.com/sketch -->
    <title>view</title>
    <desc>Created with Sketch.</desc>
    <defs></defs>
    <g id="Page-1" stroke="none" stroke-width="1" fill="none" fill-rule="evenodd" sketch:type="MSPage">
        <path d="M19.0714492,7.758 C17.6764492,10.758 14.6374492,12.836 11.1124492,12.836 C7.58644924,12.836 4.54844924,10.758 3.15244924,7.758 C3.10944924,7.665 3.10944924,7.559 3.15244924,7.468 C4.54844924,4.468 7.58644924,2.389 11.1124492,2.389 C14.6374492,2.389 17.6764492,4.468 19.0714492,7.468 C19.1144492,7.561 19.1144492,7.667 19.0714492,7.758 L19.0714492,7.758 Z M11.1134492,4.604 C9.45144924,4.604 8.10444924,5.95 8.10444924,7.614 C8.10444924,9.275 9.45044924,10.623 11.1134492,10.623 C12.7744492,10.623 14.1224492,9.275 14.1224492,7.614 C14.1224492,5.952 12.7754492,4.604 11.1134492,4.604 L11.1134492,4.604 Z M21.2564492,7.81 C19.4774492,11.896 15.6044492,14.726 11.1094492,14.726 C6.61544924,14.726 2.74244924,11.896 0.963449244,7.81 C0.908449244,7.684 0.908449244,7.54 0.963449244,7.416 C2.74244924,3.33 6.61544924,0.5 11.1094492,0.5 C15.6044492,0.5 19.4774492,3.33 21.2564492,7.416 C21.3114492,7.542 21.3114492,7.687 21.2564492,7.81 L21.2564492,7.81 Z" id="view" fill="#CCCCCC" sketch:type="MSShapeGroup"></path>
    </g>
</svg>